<svg width="1614" height="1672" viewBox="0 0 1614 1672" fill="none" xmlns="http://www.w3.org/2000/svg">
<g clip-path="url(#clip0_54_52)">
<path d="M969.956 961.384C1091.71 961.384 1190.42 902.687 1190.42 830.28C1190.42 757.874 1091.71 699.176 969.956 699.176C848.2 699.176 749.496 757.874 749.496 830.28C749.496 902.687 848.2 961.384 969.956 961.384Z" fill="white"/>
<path d="M969.957 971.379C909.297 971.379 852.12 957.242 808.957 931.575C764.167 904.939 739.5 868.965 739.5 830.279C739.5 791.594 764.167 755.622 808.957 728.985C852.12 703.317 909.297 689.181 969.957 689.181C1030.62 689.181 1087.79 703.318 1130.96 728.985C1175.75 755.621 1200.41 791.595 1200.41 830.279C1200.41 868.964 1175.75 904.938 1130.96 931.575C1087.79 957.243 1030.62 971.379 969.957 971.379ZM969.957 709.171C912.842 709.171 859.294 722.309 819.178 746.166C780.689 769.054 759.492 798.927 759.492 830.28C759.492 861.634 780.689 891.508 819.178 914.396C859.294 938.252 912.842 951.391 969.957 951.391C1027.07 951.391 1080.62 938.253 1120.74 914.396C1159.22 891.508 1180.42 861.634 1180.42 830.28C1180.42 798.927 1159.22 769.054 1120.74 746.166C1080.62 722.31 1027.07 709.171 969.957 709.171Z" fill="black"/>
<path d="M1487.68 964.709C1469.24 943.519 1459.78 915.864 1454.92 888.198C1450.05 860.532 1449.36 832.315 1446.1 804.414C1435.5 713.58 1396.88 626.21 1336.83 557.219C1276.79 488.228 1195.58 437.906 1107.07 414.845L1071.05 461.183C1131.27 565.246 1127.79 664.661 1156.59 795.198C1180.04 901.506 1255.98 1015.36 1362.9 1035.95L1487.68 964.709Z" fill="white"/>
<path d="M1362.91 1045.42C1362.31 1045.42 1361.71 1045.36 1361.11 1045.25C1309.23 1035.26 1260.8 1003.57 1221.03 953.615C1186.07 909.685 1159.9 854.148 1147.34 797.235C1138.55 757.386 1132.82 720.867 1127.27 685.549C1114.75 605.795 1103.93 536.916 1062.85 465.924C1060.92 462.588 1061.21 458.415 1063.57 455.372L1099.59 409.034C1101.91 406.048 1105.79 404.726 1109.45 405.682C1199.56 429.158 1282.85 480.769 1343.98 551.003C1405.1 621.237 1444.71 710.844 1455.51 803.315C1456.77 814.099 1457.66 825.025 1458.52 835.591C1459.89 852.435 1461.31 869.853 1464.24 886.557C1469.7 917.591 1479.71 941.121 1494.83 958.493C1498.26 962.437 1497.85 968.418 1493.9 971.85C1489.96 975.284 1483.97 974.869 1480.54 970.923C1463.09 950.88 1451.66 924.357 1445.59 889.836C1442.5 872.266 1441.05 854.402 1439.64 837.127C1438.79 826.723 1437.92 815.965 1436.7 805.511C1426.34 716.791 1388.33 630.819 1329.69 563.433C1272.4 497.609 1194.83 448.837 1110.69 425.617L1082.41 461.998C1122.65 534.031 1133.48 603.027 1145.98 682.611C1151.48 717.646 1157.17 753.874 1165.84 793.156C1187.5 891.345 1258.96 1006.3 1364.69 1026.65C1369.82 1027.64 1373.19 1032.6 1372.2 1037.74C1371.32 1042.27 1367.36 1045.42 1362.91 1045.42V1045.42Z" fill="black"/>
<path d="M1444.79 951.489C1442.96 951.489 1441.11 950.987 1439.45 949.933C1403.67 927.244 1376.35 886.844 1358.23 829.855C1352.43 811.594 1347.72 792.821 1343.17 774.667C1336.51 748.108 1329.62 720.645 1319.32 695.185C1299.36 645.905 1266.38 602.932 1223.93 570.91C1219.53 567.586 1218.65 561.317 1221.98 556.912C1225.3 552.506 1231.57 551.627 1235.98 554.954C1281.31 589.155 1316.54 635.053 1337.85 687.685C1348.68 714.436 1355.74 742.585 1362.56 769.806C1367.04 787.665 1371.67 806.132 1377.29 823.799C1393.94 876.191 1418.46 912.95 1450.16 933.054C1454.82 936.01 1456.2 942.187 1453.24 946.847C1451.34 949.847 1448.1 951.489 1444.79 951.489Z" fill="black"/>
<path d="M1452.1 1031.59C1450.92 1031.59 1449.72 1031.38 1448.55 1030.94C1389.5 1008.47 1349.15 960.836 1325.69 924.832C1296.11 879.418 1276.55 828.584 1257.64 779.427C1255.66 774.275 1258.23 768.492 1263.38 766.51C1268.53 764.531 1274.32 767.098 1276.3 772.249C1294.84 820.442 1314.02 870.274 1342.45 913.924C1364.28 947.438 1401.64 991.703 1455.66 1012.25C1460.82 1014.22 1463.41 1019.99 1461.45 1025.15C1459.93 1029.14 1456.14 1031.59 1452.11 1031.59H1452.1Z" fill="black"/>
<path d="M1347.15 525.995C1344.62 525.995 1342.09 525.043 1340.15 523.134C1265.75 450.135 1200.69 421.35 1135.4 432.531C1129.95 433.457 1124.79 429.806 1123.86 424.368C1122.92 418.928 1126.58 413.762 1132.02 412.829C1171.9 405.996 1212.75 412.831 1253.42 433.142C1285.69 449.256 1318.64 474.026 1354.15 508.868C1358.09 512.734 1358.15 519.062 1354.28 523.001C1352.32 524.995 1349.74 525.995 1347.15 525.995Z" fill="black"/>
<path d="M1073.19 487.124C1103.35 487.124 1127.79 462.684 1127.79 432.537C1127.79 402.389 1103.35 377.949 1073.19 377.949C1043.04 377.949 1018.6 402.389 1018.6 432.537C1018.6 462.684 1043.04 487.124 1073.19 487.124Z" fill="#2563EB"/>
<path d="M1073.19 497.118C1037.58 497.118 1008.6 468.147 1008.6 432.537C1008.6 396.926 1037.58 367.955 1073.19 367.955C1108.81 367.955 1137.79 396.926 1137.79 432.537C1137.79 468.147 1108.81 497.118 1073.19 497.118ZM1073.19 387.942C1048.6 387.942 1028.59 407.947 1028.59 432.536C1028.59 457.124 1048.6 477.129 1073.19 477.129C1097.79 477.129 1117.8 457.124 1117.8 432.536C1117.8 407.947 1097.79 387.942 1073.19 387.942Z" fill="black"/>
<path d="M916.829 571.851H1023.08V761.879H916.829V571.851Z" fill="white"/>
<path d="M916.829 771.873C911.308 771.873 906.833 767.397 906.833 761.879V571.851C906.833 566.332 911.308 561.856 916.829 561.856H1023.08C1028.6 561.856 1033.08 566.332 1033.08 571.851V704.786C1033.08 710.304 1028.6 714.78 1023.08 714.78C1017.56 714.78 1013.09 710.304 1013.09 704.786V581.845H926.826V761.879C926.826 767.397 922.35 771.873 916.829 771.873Z" fill="black"/>
<path d="M780.226 595.758C856.201 672.084 955.817 639.795 988.703 616.617C1059.24 566.908 1072.48 469.544 1074.97 422.371C1080.1 325.419 1054.75 226.658 1001.01 145.665C972.333 102.43 934.523 63.0665 886.122 44.3573C836.144 25.0385 779.877 34.7978 731.282 57.3718C541.822 145.383 637.727 452.602 780.225 595.758H780.226Z" fill="white"/>
<path d="M894.351 653.596C854.811 653.598 810.996 640.839 773.14 602.808C723.792 553.233 679.071 482.905 650.447 409.858C619.689 331.372 608.849 253.951 619.921 191.856C625.653 159.708 637.118 131.453 653.994 107.877C672.228 82.4054 696.814 62.364 727.07 48.3081C784.767 21.5066 842.533 16.7924 889.727 35.0358C934.249 52.2458 974.494 87.6084 1009.35 140.141C1063.43 221.674 1090.29 322.093 1084.95 422.9C1082.12 476.477 1066.59 573.95 994.462 624.786C974.624 638.767 936.97 653.594 894.351 653.596ZM828.617 44.0866C799.189 44.0866 767.438 51.5982 735.495 66.4366C682.753 90.9374 650.49 134.314 639.604 195.365C616.416 325.399 696.496 497.473 787.311 588.708C821.38 622.934 859.555 633.657 893.347 633.66C935.489 633.664 970.819 616.994 982.943 608.448C1048.17 562.476 1062.35 471.802 1064.99 421.844C1070.1 325.292 1044.42 229.171 992.685 151.189C960.167 102.173 923.102 69.3659 882.518 53.679C865.93 47.2667 847.763 44.0866 828.617 44.0866Z" fill="black"/>
<path d="M1023.71 333.306C1021.34 317.731 1025.77 301.243 1035.63 288.955C1045.49 276.667 1060.63 268.764 1076.35 267.699C1101.08 266.023 1125.51 281.818 1135.94 304.291C1146.38 326.764 1143.24 354.446 1129.75 375.223C1116.25 396 1090.47 409.838 1066.08 414.208" fill="white"/>
<path d="M1066.07 424.204C1061.32 424.204 1057.11 420.809 1056.24 415.972C1055.27 410.538 1058.88 405.344 1064.32 404.372C1088.09 400.111 1110.48 386.533 1121.36 369.78C1133.4 351.259 1135.56 327.204 1126.88 308.499C1117.96 289.284 1097 276.32 1077.03 277.672C1064.1 278.549 1051.54 285.105 1043.43 295.21C1035.32 305.315 1031.65 318.996 1033.59 331.805C1034.42 337.262 1030.67 342.359 1025.21 343.188C1019.76 344.018 1014.66 340.264 1013.83 334.809C1011.05 316.571 1016.29 297.091 1027.84 282.701C1039.39 268.313 1057.27 258.977 1075.68 257.729C1104.04 255.815 1132.54 273.225 1145.01 300.084C1156.52 324.883 1153.82 356.514 1138.13 380.669C1124.17 402.158 1097.24 418.78 1067.84 424.047C1067.25 424.153 1066.65 424.204 1066.07 424.204Z" fill="black"/>
<path d="M743.77 406.032C743.375 433.29 734.121 460.349 717.742 482.144C709.641 492.923 699.823 502.5 693.252 514.275C686.681 526.05 683.84 541.151 690.548 552.847C697.987 565.818 715.319 570.558 729.88 567.142C744.441 563.726 756.601 553.826 767.048 543.125C789.514 520.112 807.218 478.898 813.558 444.828" fill="white"/>
<path d="M720.746 578.162C705.908 578.162 689.968 571.927 681.877 557.82C674.143 544.335 675.132 526.235 684.524 509.407C689.266 500.909 695.331 493.687 701.195 486.703C704.226 483.094 707.088 479.686 709.751 476.142C724.879 456.012 733.41 431.063 733.776 405.888C733.856 400.418 738.316 396.04 743.769 396.04H743.917C749.437 396.12 753.847 400.659 753.767 406.178C753.341 435.551 743.386 464.662 725.735 488.149C722.747 492.125 719.575 495.903 716.508 499.556C711.001 506.114 705.8 512.307 701.984 519.146C697.397 527.367 694.263 539.232 699.222 547.878C704.539 557.15 717.808 559.711 727.599 557.416C741.009 554.27 752.453 543.771 759.896 536.147C779.176 516.399 797.201 478.097 803.731 443.004C804.742 437.577 809.962 433.993 815.388 435.007C820.816 436.016 824.397 441.233 823.387 446.66C817.314 479.296 799.751 523.941 774.203 550.11C765.015 559.523 750.659 572.537 732.166 576.876C728.549 577.724 724.687 578.164 720.747 578.164L720.746 578.162Z" fill="black"/>
<path d="M805.433 354.119C801.573 354.119 797.896 351.87 796.26 348.105C794.06 343.043 796.38 337.156 801.443 334.956L877.667 301.832C882.729 299.63 888.619 301.951 890.82 307.014C893.02 312.076 890.7 317.964 885.637 320.164L809.413 353.287C808.116 353.851 806.762 354.119 805.433 354.119Z" fill="black"/>
<path d="M849.319 379.06C856.817 375.772 858.167 362.328 852.335 349.032C846.502 335.735 835.695 327.622 828.196 330.91C820.698 334.198 819.348 347.642 825.18 360.939C831.013 374.235 841.82 382.348 849.319 379.06Z" fill="black"/>
<path d="M810.417 348.136C809.782 348.136 809.138 348.075 808.491 347.948C803.073 346.891 799.537 341.642 800.595 336.225C801.914 329.468 800.9 325.615 796.962 316.711C794.731 311.661 797.014 305.761 802.064 303.529C807.114 301.298 813.017 303.581 815.248 308.63C819.613 318.503 822.749 327.085 820.217 340.056C819.286 344.826 815.102 348.136 810.417 348.136Z" fill="black"/>
<path d="M670.544 406.663C666.685 406.663 663.008 404.414 661.372 400.649C659.171 395.587 661.492 389.7 666.555 387.5L728.099 360.754C733.162 358.552 739.051 360.874 741.251 365.936C743.452 370.998 741.131 376.886 736.068 379.086L674.524 405.831C673.226 406.395 671.874 406.663 670.544 406.663Z" fill="black"/>
<path d="M714.431 431.604C721.929 428.316 723.279 414.871 717.446 401.575C711.613 388.279 700.806 380.166 693.308 383.454C685.81 386.742 684.459 400.186 690.292 413.482C696.125 426.778 706.932 434.892 714.431 431.604Z" fill="black"/>
<path d="M675.529 400.681C674.894 400.681 674.25 400.62 673.603 400.493C668.185 399.436 664.649 394.187 665.706 388.77C667.026 382.013 666.011 378.159 662.074 369.254C659.843 364.205 662.126 358.305 667.176 356.073C672.226 353.841 678.129 356.125 680.36 361.174C684.724 371.046 687.861 379.628 685.329 392.601C684.398 397.371 680.214 400.682 675.529 400.682V400.681Z" fill="black"/>
<path d="M879.245 535.782C875.598 535.782 872.123 533.664 870.565 530.109C868.467 525.319 870.65 519.736 875.442 517.638C902.244 505.905 920.862 477.279 920.718 448.027C920.692 442.798 924.91 438.538 930.14 438.511C935.354 438.46 939.632 442.704 939.657 447.933C939.838 484.515 916.554 520.311 883.038 534.984C881.802 535.526 880.514 535.782 879.245 535.782Z" fill="black"/>
<path d="M940.439 465.923C937.262 465.923 934.159 464.324 932.368 461.421C927.207 453.048 918.793 446.799 909.285 444.277C904.23 442.935 901.219 437.752 902.559 432.697C903.901 427.642 909.089 424.629 914.141 425.974C928.291 429.727 940.811 439.027 948.491 451.486C951.235 455.938 949.85 461.771 945.398 464.513C943.849 465.467 942.133 465.922 940.438 465.922L940.439 465.923Z" fill="black"/>
<path d="M653.581 87.4433C667.537 70.4262 770.317 -8.15132 881.652 13.8509C1066.71 50.4228 1069.13 219.807 1082.62 267.577L1046.25 273.966C971.868 280.043 888.159 264.577 820.905 232.226C753.651 199.876 695.254 149.345 653.581 87.4433Z" fill="white"/>
<path d="M1014.16 285.243C947.048 285.243 875.301 269.482 816.571 241.233C747.387 207.954 688.158 156.704 645.288 93.0241C642.824 89.3632 643.052 84.519 645.851 81.106C653.105 72.2611 682.466 47.3815 726.922 26.9353C764.282 9.75227 821.789 -8.16835 883.591 4.04657C955.17 18.1924 1008.82 53.6219 1043.05 109.348C1071.45 155.588 1080.77 206.028 1086.93 239.405C1088.84 249.733 1090.49 258.652 1092.24 264.862C1093.01 267.582 1092.59 270.5 1091.09 272.893C1089.58 275.288 1087.14 276.932 1084.35 277.42L1047.99 283.811C1047.68 283.865 1047.38 283.904 1047.07 283.929C1036.28 284.81 1025.28 285.243 1014.16 285.243ZM666.494 88.5806C706.971 146.203 761.706 192.659 825.239 223.22C890.504 254.615 972.611 269.86 1044.98 264.043L1070.45 259.569C1069.41 254.6 1068.38 249.045 1067.27 243.034C1055.06 176.906 1032.33 53.8158 879.714 23.6552C823.163 12.4797 769.955 29.144 735.277 45.0928C701.414 60.6688 677.171 78.9082 666.494 88.5806Z" fill="black"/>
<path d="M544.47 163.207C539.456 163.207 535.273 159.272 535.02 154.21C533.587 125.516 556.683 102.605 578.747 93.4631C602.673 83.5469 631.42 77.6273 653.735 77.9771C658.964 78.062 663.134 82.3695 663.049 87.5975C662.965 92.8255 658.693 97.0131 653.427 96.9091C633.546 96.6063 607.686 101.968 585.999 110.955C569.873 117.638 552.961 133.729 553.936 153.267C554.197 158.49 550.173 162.935 544.95 163.196C544.789 163.204 544.629 163.208 544.47 163.208V163.207Z" fill="black"/>
<path d="M701.31 262.131C699.026 262.131 696.736 261.311 694.918 259.648C654.179 222.367 637.541 155.146 655.356 99.8112C656.958 94.834 662.295 92.0986 667.272 93.6997C672.25 95.3018 674.987 100.635 673.384 105.613C657.727 154.247 672.161 213.154 707.705 245.679C711.562 249.209 711.828 255.198 708.296 259.056C706.428 261.096 703.872 262.131 701.308 262.131H701.31Z" fill="black"/>
<path d="M584.481 182.491C583.142 182.491 581.781 182.205 580.487 181.602C575.746 179.393 573.695 173.759 575.904 169.021C590.674 137.342 617.396 110.877 649.218 96.4091C653.98 94.2473 659.594 96.3481 661.759 101.108C663.924 105.869 661.82 111.482 657.058 113.647C629.285 126.274 605.962 149.372 593.071 177.02C591.465 180.465 588.049 182.491 584.481 182.491Z" fill="black"/>
<path d="M640.212 352.537C637.835 352.537 635.45 351.694 633.542 349.983C629.432 346.298 629.087 339.98 632.772 335.87C649.343 317.393 674.055 306.285 698.877 306.159H698.929C704.426 306.159 708.896 310.599 708.924 316.102C708.952 321.621 704.5 326.118 698.979 326.147C679.708 326.246 660.522 334.87 647.657 349.215C645.683 351.415 642.954 352.537 640.212 352.537Z" fill="black"/>
<path d="M758.965 300.521C756.588 300.521 754.203 299.679 752.295 297.968C748.185 294.283 747.84 287.965 751.525 283.855C768.096 265.379 792.808 254.27 817.63 254.143H817.682C823.18 254.143 827.649 258.584 827.677 264.086C827.705 269.605 823.253 274.103 817.732 274.132C798.461 274.23 779.275 282.853 766.41 297.198C764.435 299.399 761.706 300.52 758.964 300.52L758.965 300.521Z" fill="black"/>
<path d="M677.379 744.933C636.372 756.438 579.165 808.396 551.728 840.965C522.568 875.579 510.812 928.493 491.415 970.778C469.57 1018.4 428.998 1050.09 411.836 1098.08C403.714 1120.79 408.045 1153.75 400.946 1176.8C392.496 1204.24 369.186 1222.23 360.738 1249.67C345.241 1299.99 339.983 1350.38 343.16 1402.93C346.337 1455.49 372.422 1509.97 420.219 1532.08C459.611 1550.3 507.345 1543.37 545.279 1522.28C573.845 1506.4 598.106 1482.87 614.845 1454.8C631.783 1426.4 625.549 1386.3 638.847 1356.03C708.374 1197.74 743.57 1025.53 790.495 857.163C795.055 840.803 776.226 783.179 776.226 783.179C776.226 783.179 738.531 727.777 677.38 744.934L677.379 744.933Z" fill="white"/>
<path d="M470.194 1552.62C451.084 1552.62 432.631 1548.83 416.021 1541.15C391.648 1529.87 370.977 1510.05 356.241 1483.81C342.894 1460.05 334.92 1432.29 333.182 1403.53C329.838 1348.21 335.727 1296.92 351.184 1246.73C355.87 1231.51 364.4 1219.31 372.649 1207.51C380.353 1196.49 387.629 1186.08 391.392 1173.86C394.438 1163.97 395.161 1151.59 395.925 1138.48C396.802 1123.44 397.71 1107.89 402.422 1094.71C412.161 1067.48 428.992 1045.28 445.268 1023.81C458.743 1006.03 472.677 987.651 482.327 966.612C488.45 953.265 493.734 938.989 499.327 923.876C511.083 892.113 523.238 859.268 544.081 834.529C570.77 802.847 629.826 747.895 674.677 735.312C702.625 727.469 730.532 732.335 755.386 749.381C773.794 762.007 784.061 776.928 784.488 777.557C785.017 778.333 785.434 779.182 785.725 780.075C790.363 794.267 805.107 841.963 800.123 859.846C788.36 902.05 777.145 945.23 766.3 986.987C733.893 1111.76 700.384 1240.79 647.997 1360.05C642.5 1372.56 640.649 1387.31 638.69 1402.92C636.232 1422.48 633.692 1442.71 623.429 1459.92C605.713 1489.62 580.368 1514.21 550.135 1531.02C524.372 1545.34 496.656 1552.62 470.192 1552.63L470.194 1552.62ZM700.74 751.622C693.945 751.622 687.055 752.598 680.08 754.555C641.702 765.322 586.391 815.332 559.374 847.403C540.78 869.475 529.239 900.656 518.079 930.811C512.603 945.608 506.94 960.908 500.502 974.943C489.937 997.975 475.329 1017.24 461.203 1035.88C445.132 1057.08 429.953 1077.11 421.249 1101.44C417.502 1111.92 416.681 1126.01 415.886 1139.64C415.085 1153.36 414.259 1167.54 410.501 1179.74C405.815 1194.96 397.285 1207.16 389.036 1218.96C381.332 1229.98 374.056 1240.39 370.292 1252.61C355.553 1300.47 349.942 1349.44 353.139 1402.33C356.452 1457.14 384.431 1504.51 424.417 1523.01C458.252 1538.66 501.618 1535.12 540.422 1513.55C567.579 1498.45 590.345 1476.36 606.26 1449.68C614.38 1436.07 616.554 1418.75 618.856 1400.42C620.908 1384.08 623.029 1367.19 629.695 1352.01C681.438 1234.21 714.743 1105.98 746.952 981.963C757.82 940.12 769.057 896.855 780.868 854.479C783.136 846.339 775.617 813.869 767.207 787.768C764.762 784.525 756.462 774.229 743.545 765.499C729.875 756.26 715.541 751.623 700.74 751.623L700.74 751.622Z" fill="black"/>
<path d="M954.266 736.618C986.348 736.825 1055.37 746.651 1085.41 757.922C1088.99 785.92 1049.54 909.202 1049.54 909.202L890.973 895.094C890.973 895.094 911.03 827.802 916.829 815.288C923.073 801.814 932.539 796.955 934.992 782.31C935.613 778.605 957.299 736.639 954.266 736.62V736.618Z" fill="white"/>
<path d="M1049.54 919.196C1049.25 919.196 1048.95 919.183 1048.65 919.157L890.087 905.048C887.098 904.781 884.386 903.187 882.701 900.704C881.015 898.222 880.536 895.113 881.392 892.237C883.467 885.279 901.828 823.885 907.759 811.086C910.723 804.689 914.216 800.057 917.298 795.97C921.232 790.755 924.073 786.987 925.133 780.658C925.557 778.126 926.946 775.033 933.235 761.726C936.6 754.606 942.58 741.952 944.282 737.128C944.273 736.939 944.268 736.746 944.269 736.554C944.305 731.057 948.773 726.624 954.264 726.624H954.33C988.472 726.845 1058.69 737.22 1088.92 748.565C1092.39 749.868 1094.85 752.98 1095.32 756.655C1099.08 786.005 1063.17 899.413 1059.06 912.248C1057.73 916.416 1053.85 919.196 1049.54 919.196ZM904.081 886.226L1042.43 898.535C1056.03 855.148 1074.22 789.786 1075.59 765.126C1047.42 756.302 993.767 748.209 961.976 746.819C961.422 748.18 960.792 749.639 960.103 751.219C957.615 756.923 954.266 764.011 951.311 770.265C948.72 775.748 945.527 782.505 944.742 784.586C942.788 795.372 937.732 802.076 933.261 808.005C930.539 811.614 927.968 815.023 925.899 819.488C922.151 827.577 910.93 863.648 904.08 886.226H904.081Z" fill="black"/>
<path d="M743.28 738.162C745.108 761.829 727.472 787.928 724.842 811.515C719.29 861.3 721.194 907.744 696.991 951.615C680.71 981.126 660.394 1008.74 649.183 1040.52C632.668 1087.34 635.493 1143.58 650.546 1191.69C657.177 1212.9 638.799 1237.09 636.695 1258.87C631.506 1312.56 617.933 1361.62 613.037 1416.19C608.436 1467.47 616.309 1535.44 611.708 1586.72C676.05 1592.81 741.82 1573.11 806.325 1577.11C902.572 1583.09 918.397 1593.68 1014.82 1595.02C1051.41 1595.53 1094.37 1587.79 1144.8 1586.72C1231.77 1584.88 1285.93 1588.64 1345.4 1567.51C1321.2 1470.13 1318.38 1273.09 1318.38 1273.09C1318.38 1273.09 1277.59 1232.69 1259.88 1179.95C1242.8 1129.09 1236.46 1074.48 1228.94 1025.83C1179.66 1029.26 1168.83 964.241 1163.23 916.667C1158.76 878.722 1149.58 839.785 1162.44 801.678C1168.82 782.788 1192.64 755.088 1188.45 736.616C1149.68 724.825 1116.58 722.158 1116.58 722.158C1116.58 722.158 985.797 829.053 958.359 845.305C921.829 866.944 911.95 854.754 882.513 885.346C876.762 878.509 871.01 871.671 865.259 864.834C849.842 846.505 828.598 846.377 818.552 824.635C813.69 814.115 815.867 784.307 814.612 772.763C813.815 765.428 819.522 745.018 816.285 739.74C809.376 728.474 757.217 737.6 743.278 738.16L743.28 738.162Z" fill="#2563EB"/>
<path d="M1018.29 1605.04C1017.08 1605.04 1015.88 1605.03 1014.68 1605.02C959.428 1604.25 930.911 1600.55 897.891 1596.26C872.892 1593.01 847.041 1589.66 805.706 1587.09C775.674 1585.23 744.408 1588.75 714.169 1592.17C680.321 1595.99 645.318 1599.94 610.767 1596.67C605.29 1596.15 601.26 1591.31 601.752 1585.83C604 1560.77 603.177 1530.76 602.38 1501.73C601.567 1472.13 600.727 1441.52 603.081 1415.3C605.627 1386.92 610.52 1359.8 615.251 1333.58C619.675 1309.06 624.251 1283.71 626.745 1257.91C627.694 1248.08 631.309 1238.39 634.805 1229.02C639.543 1216.31 644.018 1204.31 641.005 1194.68C624.04 1140.44 623.584 1083.04 639.756 1037.2C647.853 1014.24 660.44 993.465 672.614 973.373C677.875 964.69 683.315 955.71 688.237 946.788C706.21 914.21 709.024 879.28 712.002 842.297C712.836 831.945 713.699 821.239 714.906 810.408C716.176 799.025 720.394 787.592 724.474 776.534C729.468 762.999 734.184 750.213 733.313 738.932C733.104 736.226 734.005 733.55 735.809 731.522C737.614 729.494 740.165 728.286 742.878 728.176C745.612 728.066 750.483 727.533 756.123 726.914C791.251 723.064 816.737 721.356 824.809 734.517C828.369 740.32 827.526 748.283 825.716 760.708C825.178 764.397 824.366 769.973 824.552 771.686C825.022 776.015 825.061 781.951 825.107 788.825C825.173 798.755 825.284 815.374 827.627 820.446C831.987 829.878 839.182 834.058 848.292 839.35C856.167 843.924 865.094 849.109 872.911 858.402L883.268 870.715C898.167 857.405 909.157 854.086 920.694 850.603C929.829 847.844 939.277 844.992 953.264 836.706C979.745 821.021 1108.95 715.484 1110.25 714.42C1112.25 712.787 1114.8 711.996 1117.38 712.195C1118.78 712.307 1152.01 715.087 1191.36 727.054C1194.8 728.099 1197.41 730.906 1198.2 734.406C1201.77 750.137 1191.93 767.405 1182.41 784.106C1178.01 791.824 1173.86 799.114 1171.91 804.873C1162.03 834.164 1166.16 863.983 1170.53 895.55C1171.44 902.084 1172.37 908.841 1173.16 915.497C1175.95 939.222 1180 966.194 1188.86 986.352C1201.18 1014.4 1217.24 1016.62 1228.25 1015.86C1233.44 1015.49 1238.03 1019.17 1238.82 1024.3C1239.99 1031.83 1241.09 1039.31 1242.27 1047.24C1248.62 1090.18 1255.19 1134.59 1269.35 1176.77C1286.06 1226.52 1325.03 1265.61 1325.42 1265.99C1327.27 1267.83 1328.34 1270.33 1328.38 1272.95C1328.4 1274.91 1331.46 1469.96 1355.1 1565.09C1356.34 1570.08 1353.59 1575.2 1348.74 1576.92C1298.09 1594.92 1251.78 1595.41 1187.69 1596.1C1174.15 1596.24 1160.15 1596.39 1145.01 1596.71C1120.65 1597.23 1098.37 1599.3 1076.82 1601.29C1056.11 1603.22 1036.47 1605.04 1018.28 1605.04L1018.29 1605.04ZM788.26 1566.58C794.498 1566.58 800.727 1566.76 806.946 1567.14C848.951 1569.75 876.319 1573.3 900.466 1576.44C932.871 1580.65 960.859 1584.28 1014.96 1585.03C1033.08 1585.28 1053.43 1583.4 1074.98 1581.4C1095.85 1579.46 1119.51 1577.26 1144.59 1576.73C1159.84 1576.41 1173.89 1576.26 1187.48 1576.11C1245.93 1575.49 1289.13 1575.03 1333.58 1560.94C1312.85 1468.11 1308.98 1305.44 1308.46 1277.21C1298.53 1266.67 1266.09 1229.84 1250.4 1183.13C1235.68 1139.27 1228.97 1093.97 1222.49 1050.17C1221.76 1045.23 1221.06 1040.47 1220.35 1035.77C1198.59 1034.03 1181.87 1020.15 1170.56 994.397C1160.64 971.828 1156.27 943.031 1153.3 917.837C1152.54 911.384 1151.62 904.732 1150.73 898.297C1146.23 865.822 1141.58 832.241 1152.97 798.485C1155.53 790.898 1160.15 782.794 1165.04 774.214C1170.64 764.396 1177.34 752.634 1178.71 744.18C1151.9 736.629 1128.65 733.524 1119.69 732.521C1098.94 749.439 989.116 838.707 963.455 853.906C947.381 863.428 935.789 866.928 926.476 869.741C913.682 873.604 905.232 876.156 889.718 892.278C887.753 894.32 885.025 895.453 882.18 895.338C879.347 895.243 876.688 893.951 874.864 891.782L857.61 871.271C852.036 864.644 845.34 860.755 838.249 856.636C828.048 850.71 816.486 843.995 809.478 828.832C805.62 820.481 805.236 807.039 805.116 788.961C805.075 782.897 805.037 777.167 804.677 773.847C804.217 769.608 805.012 764.149 805.932 757.83C806.459 754.212 807.275 748.614 807.314 745.454C805.212 744.824 800.23 743.897 789.523 744.2C779.233 744.492 767.628 745.763 758.302 746.785C756.47 746.986 754.749 747.175 753.148 747.345C752.036 759.588 747.576 771.679 743.232 783.453C739.398 793.845 735.776 803.661 734.777 812.624C733.603 823.151 732.754 833.701 731.931 843.903C728.775 883.09 725.793 920.101 705.744 956.443C700.625 965.72 695.078 974.875 689.714 983.729C677.531 1003.84 666.021 1022.83 658.611 1043.85C643.845 1085.71 644.383 1138.51 660.086 1188.71C665.145 1204.88 658.978 1221.42 653.538 1236C650.352 1244.54 647.343 1252.61 646.645 1259.83C644.073 1286.45 639.424 1312.21 634.927 1337.13C630.272 1362.92 625.46 1389.59 622.993 1417.08C620.745 1442.14 621.569 1472.16 622.365 1501.18C623.075 1527.05 623.806 1553.69 622.409 1577.49C651.9 1579.08 682.364 1575.64 711.926 1572.31C736.934 1569.49 762.631 1566.58 788.26 1566.58Z" fill="black"/>
<path d="M989.939 854.508C1029.25 814.738 1068.56 774.968 1107.87 735.198C1115.29 727.691 1131.84 724.58 1129.22 714.356C1127.58 707.942 1113.59 696.871 1108.42 692.74C1099.58 685.681 1084.18 657.909 1067.93 650.85C1052.45 644.126 1029.87 643.622 1029.87 643.622C1029.87 643.622 1032.95 665.693 1026.21 671.562C1015.09 681.266 1007.34 690.898 996.212 700.601C984.316 710.973 954.268 736.618 954.268 736.618C954.268 736.618 967.776 779.273 970.173 793.864C971.657 802.9 995.316 849.027 989.939 854.508Z" fill="white"/>
<path d="M989.938 864.502C987.406 864.502 984.873 863.547 982.926 861.63C979.954 858.706 979.198 854.379 980.676 850.741C979.944 844.755 972.645 827.435 968.624 817.89C963.631 806.04 960.994 799.662 960.307 795.481C958.438 784.101 948.433 751.309 944.736 739.634C943.523 735.805 944.721 731.622 947.776 729.016C948.076 728.759 977.921 703.286 989.64 693.067C994.903 688.478 999.353 683.921 1004.06 679.096C1008.75 674.293 1013.6 669.329 1019.32 664.311C1020.68 661.745 1021 652.532 1019.97 644.987C1019.57 642.088 1020.46 639.155 1022.41 636.971C1024.36 634.788 1027.16 633.548 1030.1 633.628C1031.1 633.65 1054.83 634.262 1071.91 641.681C1084.68 647.23 1095.69 661.48 1104.53 672.929C1108.41 677.95 1112.42 683.144 1114.65 684.928L1114.93 685.151C1127.85 695.462 1136.87 703.953 1138.9 711.874C1142.51 725.964 1130.07 732.987 1122.64 737.182C1119.66 738.865 1116.58 740.604 1114.98 742.22L997.048 861.532C995.093 863.51 992.516 864.502 989.938 864.502ZM965.774 739.934C969.676 752.553 978.101 780.467 980.036 792.244C980.475 794.527 984.274 803.547 987.049 810.131C991.042 819.606 994.205 827.315 996.485 833.668L1100.76 728.171C1104.32 724.572 1108.83 722.026 1112.81 719.779C1114.64 718.749 1117.42 717.175 1118.94 715.994C1117.47 713.932 1113.45 709.545 1102.46 700.774L1102.18 700.55C1098.07 697.265 1093.73 691.651 1088.71 685.148C1081.66 676.02 1072 663.517 1063.94 660.017C1056.83 656.926 1047.7 655.315 1040.64 654.482C1040.63 663.318 1039.07 673.614 1032.79 679.095C1027.53 683.681 1023.08 688.236 1018.37 693.059C1013.59 697.954 1008.65 703.017 1002.78 708.134C993.927 715.855 974.864 732.166 965.774 739.934Z" fill="black"/>
<path d="M848.265 687.458C837.696 689.156 811.37 695.362 806.351 704.815C805.658 745.923 819.247 783.531 818.553 824.639C834.052 799.739 852.79 773.21 877.923 758.085C891.368 749.995 916.829 725.398 916.829 725.398L910.773 671.563C910.773 671.563 861.102 685.395 848.265 687.458Z" fill="white"/>
<path d="M818.553 834.634C817.613 834.634 816.663 834.501 815.726 834.225C811.415 832.955 808.482 828.962 808.558 824.469C808.89 804.813 805.829 786.126 802.588 766.341C799.346 746.556 795.995 726.096 796.357 704.646C796.383 703.07 796.783 701.522 797.523 700.128C805.407 685.278 837.141 679.123 846.679 677.59C856.755 675.971 894.426 665.741 908.091 661.936C910.911 661.149 913.935 661.64 916.364 663.278C918.792 664.917 920.379 667.536 920.706 670.446L926.763 724.279C927.11 727.362 926.006 730.429 923.775 732.585C922.702 733.621 897.333 758.07 883.078 766.648C859.611 780.77 841.581 806.557 827.04 829.919C825.181 832.906 821.94 834.635 818.552 834.635L818.553 834.634ZM816.323 708.381C816.37 726.802 819.264 744.468 822.317 763.109C823.984 773.279 825.678 783.624 826.884 794.193C839.533 776.905 854.492 760.52 872.769 749.523C881.572 744.224 897.668 729.727 906.34 721.579L902.146 684.3C886.521 688.553 859.283 695.811 849.85 697.325C834.905 699.727 820.81 704.852 816.322 708.382L816.323 708.381Z" fill="black"/>
<path d="M763.163 811.673C763.013 811.673 762.864 811.67 762.712 811.663C757.389 811.426 753.187 807.057 753.16 801.73L753.148 799.432C753.14 797.88 753.487 796.409 754.112 795.094C757.831 777.839 771.52 747.704 795.745 703.395C796.587 701.856 797.196 700.743 797.516 700.139C800.099 695.26 806.148 693.397 811.028 695.981C815.907 698.563 817.769 704.611 815.186 709.489C814.842 710.138 814.19 711.332 813.289 712.981C779.932 773.994 773.796 795.33 773.109 802.618C772.622 807.77 768.29 811.673 763.163 811.673Z" fill="black"/>
<path d="M1268.81 733.289C1292.67 739.983 1309.62 767.06 1335.39 791.231C1353.91 808.604 1382.97 822.327 1394.44 835.947C1423.6 870.561 1435.36 923.475 1454.75 965.76C1476.6 1013.38 1517.17 1045.07 1534.33 1093.06C1542.46 1115.77 1538.12 1148.73 1545.22 1171.79C1553.67 1199.22 1576.98 1217.21 1585.43 1244.65C1600.93 1294.97 1606.19 1345.36 1603.01 1397.91C1599.83 1450.47 1573.75 1504.95 1525.95 1527.06C1486.56 1545.28 1438.82 1538.36 1400.89 1517.27C1372.32 1501.38 1348.06 1477.85 1331.32 1449.78C1314.39 1421.38 1320.62 1381.29 1307.32 1351.01C1296.11 1325.48 1300.5 1279.45 1278.8 1238.9C1257.93 1199.9 1228.94 1025.83 1228.94 1025.83C1228.94 1025.83 1194.8 1015.67 1186.38 1001.51C1152.6 944.763 1172.41 919.468 1152.6 854.51C1140.06 813.366 1192.35 740.487 1192.35 740.487C1192.35 740.487 1207.66 716.134 1268.81 733.291V733.289Z" fill="white"/>
<path d="M1475.98 1547.61C1449.51 1547.61 1421.8 1540.32 1396.03 1526C1365.8 1509.19 1340.45 1484.6 1322.74 1454.9C1312.47 1437.69 1309.93 1417.46 1307.48 1397.89C1305.52 1382.29 1303.67 1367.54 1298.17 1355.03C1293.04 1343.36 1290.91 1328.46 1288.66 1312.68C1285.53 1290.83 1281.99 1266.06 1269.98 1243.61C1250.58 1207.35 1225.5 1065.06 1220.1 1033.47C1208.47 1029.44 1185.83 1020.15 1177.78 1006.62C1156.9 971.529 1155.25 946.996 1153.5 921.021C1152.26 902.559 1150.98 883.468 1143.04 857.422C1137.07 837.849 1142.38 811.011 1158.8 777.653C1170.09 754.728 1182.68 736.835 1184.11 734.823C1187.05 730.456 1207.07 705.585 1271.51 723.666C1290.72 729.058 1305.38 745.006 1320.9 761.89C1327.6 769.18 1334.52 776.718 1342.23 783.941C1350.49 791.693 1361.28 798.842 1371.71 805.757C1383.78 813.759 1395.19 821.317 1402.08 829.507C1422.93 854.249 1435.08 887.094 1446.84 918.856C1452.43 933.97 1457.71 948.244 1463.84 961.592C1473.49 982.63 1487.42 1001.01 1500.9 1018.79C1517.17 1040.26 1534 1062.46 1543.74 1089.69C1548.46 1102.87 1549.36 1118.42 1550.24 1133.45C1551.01 1146.57 1551.73 1158.95 1554.77 1168.84C1558.54 1181.06 1565.81 1191.47 1573.52 1202.49C1581.77 1214.29 1590.3 1226.49 1594.98 1241.71C1610.44 1291.9 1616.33 1343.19 1612.99 1398.51C1611.25 1427.27 1603.27 1455.03 1589.93 1478.8C1575.19 1505.03 1554.52 1524.85 1530.15 1536.13C1513.54 1543.81 1495.08 1547.6 1475.97 1547.6L1475.98 1547.61ZM1200.72 745.972C1200.64 746.127 1200.69 746.012 1200.47 746.311C1186.74 765.483 1153.07 821.776 1162.17 851.595C1170.78 879.838 1172.2 901.006 1173.46 919.683C1175.17 945.235 1176.53 965.419 1194.97 996.398C1199.38 1003.82 1219.17 1012.48 1231.8 1016.25C1235.46 1017.35 1238.18 1020.42 1238.81 1024.19C1248.74 1083.83 1271.73 1204.48 1287.61 1234.18C1301.29 1259.74 1305.09 1286.36 1308.45 1309.86C1310.6 1324.86 1312.45 1337.82 1316.48 1346.99C1323.14 1362.17 1325.26 1379.07 1327.32 1395.41C1329.62 1413.73 1331.79 1431.05 1339.91 1444.66C1355.82 1471.34 1378.59 1493.43 1405.75 1508.53C1444.55 1530.1 1487.92 1533.64 1521.75 1517.99C1561.74 1499.49 1589.72 1452.12 1593.03 1397.31C1596.23 1344.42 1590.62 1295.45 1575.88 1247.59C1572.12 1235.37 1564.84 1224.96 1557.14 1213.94C1548.89 1202.14 1540.36 1189.94 1535.67 1174.73C1531.91 1162.52 1531.09 1148.34 1530.29 1134.62C1529.49 1120.99 1528.67 1106.9 1524.92 1096.42C1516.22 1072.09 1501.04 1052.06 1484.97 1030.86C1470.84 1012.22 1456.23 992.955 1445.67 969.924C1439.23 955.889 1433.57 940.589 1428.09 925.792C1416.93 895.638 1405.39 864.456 1386.8 842.384C1381.75 836.39 1371.51 829.602 1360.66 822.416C1349.54 815.044 1338.04 807.422 1328.55 798.519C1320.31 790.787 1313.13 782.971 1306.18 775.413C1292.05 760.042 1279.85 746.767 1266.11 742.911C1216.93 729.114 1202.13 744.341 1200.73 745.972H1200.72Z" fill="black"/>
<path d="M1461.82 1567.98C1413.59 1599.66 1347.56 1582.59 1317.48 1530.66L1111.26 1195.48C1088.84 1159.04 1098.35 1112.12 1132.75 1089.53C1165.57 1067.98 1210.06 1075.89 1235.5 1107.81L1484.88 1420.72C1520.61 1468.93 1510.06 1536.3 1461.82 1567.98L1461.82 1567.98Z" fill="white"/>
<path d="M1408.45 1593.96C1399.89 1593.96 1391.23 1592.95 1382.61 1590.91C1351.88 1583.64 1325.02 1563.55 1308.9 1535.79L1102.75 1200.72C1090.57 1180.93 1086.36 1157.7 1090.9 1135.32C1095.47 1112.81 1108.38 1093.58 1127.26 1081.18C1145.28 1069.34 1167.08 1064.94 1188.64 1068.78C1210.08 1072.59 1229.49 1084.24 1243.31 1101.58L1492.7 1414.49C1492.77 1414.58 1492.84 1414.67 1492.91 1414.77C1512.06 1440.6 1519.86 1473.27 1514.33 1504.4C1509 1534.37 1492.3 1559.92 1467.31 1576.33C1449.59 1587.97 1429.31 1593.96 1408.44 1593.96L1408.45 1593.96ZM1173.55 1087.34C1161.31 1087.34 1149.08 1090.77 1138.24 1097.88C1108.17 1117.63 1100.06 1158.2 1119.78 1190.25L1326 1525.43C1326.04 1525.5 1326.09 1525.58 1326.14 1525.66C1339.51 1548.75 1361.77 1565.44 1387.22 1571.46C1411.44 1577.19 1435.99 1572.99 1456.34 1559.63C1476.68 1546.26 1490.29 1525.41 1494.65 1500.91C1499.21 1475.22 1492.77 1448.22 1476.95 1426.8L1227.68 1114.04C1213.79 1096.61 1193.67 1087.34 1173.55 1087.34Z" fill="black"/>
<path d="M1493.25 1358.95C1491.38 1351.51 1491.52 1343.7 1490.08 1336.15C1486.77 1318.82 1475.21 1303.94 1461.29 1293.1C1447.37 1282.26 1431.09 1274.93 1414.99 1267.71C1390.47 1256.71 1369.94 1239.37 1345.42 1228.37C1333.86 1223.19 1304.57 1218.17 1304.57 1218.17C1304.57 1218.17 1280.8 1266.9 1267.71 1282.52C1239.05 1316.7 1172.75 1331.44 1172.75 1331.44C1172.75 1331.44 1158.86 1371.87 1159.72 1383.57C1162.01 1414.58 1186.23 1434.78 1200.58 1462.37C1208.57 1477.74 1213.81 1500.49 1221.8 1515.87C1231.11 1533.76 1243.53 1544.75 1258.79 1557.94C1278.28 1574.78 1304.44 1581.18 1329.52 1587.04C1364.07 1595.12 1400.77 1603.12 1434.4 1591.82C1459.75 1583.31 1504.63 1565.64 1521.61 1544.99C1565.5 1491.61 1593.89 1432.88 1590.97 1363.84L1493.26 1358.95L1493.25 1358.95Z" fill="white"/>
<path d="M1397.44 1607.4C1372.71 1607.4 1348.31 1601.7 1327.25 1596.77C1303.54 1591.23 1274.04 1584.34 1252.25 1565.5C1237.39 1552.65 1223.36 1540.52 1212.93 1520.47C1208.6 1512.14 1205.11 1502.1 1201.74 1492.39C1198.61 1483.36 1195.37 1474.02 1191.71 1466.97C1187.17 1458.25 1181.34 1449.98 1175.71 1441.98C1163.79 1425.08 1151.47 1407.59 1149.75 1384.31C1148.81 1371.55 1159.88 1338.13 1163.29 1328.19C1164.42 1324.9 1167.18 1322.44 1170.58 1321.68C1171.2 1321.54 1233.94 1307.24 1260.05 1276.1C1270.13 1264.06 1289.12 1227.04 1295.59 1213.79C1297.54 1209.8 1301.88 1207.57 1306.26 1208.32C1309.39 1208.86 1337.15 1213.71 1349.51 1219.26C1362.41 1225.04 1374.17 1232.43 1385.53 1239.58C1396.81 1246.68 1407.46 1253.38 1419.09 1258.59C1435.51 1265.96 1452.48 1273.57 1467.44 1285.22C1484.93 1298.84 1496.46 1316.26 1499.9 1334.28C1500.62 1338.04 1500.98 1341.7 1501.32 1345.24C1501.71 1349.26 1502.08 1353.07 1502.95 1356.51C1504.3 1361.87 1501.05 1367.3 1495.69 1368.64C1490.34 1370 1484.91 1366.74 1483.56 1361.39C1482.33 1356.49 1481.87 1351.75 1481.42 1347.17C1481.11 1343.94 1480.81 1340.89 1480.26 1338.03C1477.73 1324.78 1468.81 1311.62 1455.15 1300.98C1442.1 1290.82 1426.24 1283.71 1410.9 1276.83C1398 1271.04 1386.25 1263.65 1374.88 1256.5C1363.61 1249.41 1352.95 1242.71 1341.33 1237.49C1334.76 1234.55 1320.11 1231.31 1310.17 1229.37C1303 1243.61 1286.16 1276.06 1275.37 1288.94C1249.6 1319.68 1197.64 1335.34 1180.48 1339.83C1174.71 1357.35 1169.29 1377.42 1169.69 1382.84C1171.01 1400.61 1181.23 1415.11 1192.05 1430.47C1198.07 1439.01 1204.29 1447.84 1209.45 1457.76C1213.78 1466.09 1217.26 1476.13 1220.63 1485.84C1223.77 1494.87 1227.01 1504.21 1230.67 1511.26C1239.33 1527.91 1251.38 1538.32 1265.33 1550.38C1283.4 1566 1309.11 1572.01 1331.8 1577.31C1361.86 1584.34 1399.27 1593.08 1431.22 1582.35C1455.32 1574.25 1495.72 1553.78 1515.15 1537.36C1572.94 1488.53 1596.46 1441.06 1593.82 1378.63C1593.58 1373.12 1597.86 1368.46 1603.38 1368.22C1608.88 1368.01 1613.56 1372.27 1613.79 1377.79C1616.69 1446.15 1590.25 1500.07 1528.06 1552.63C1506.59 1570.77 1463.95 1592.44 1437.59 1601.29C1424.43 1605.71 1410.88 1607.4 1397.44 1607.4Z" fill="black"/>
<path d="M1163.58 1286.11C1192.47 1284.19 1231.05 1257.21 1250.35 1235.63C1269.65 1214.06 1284.62 1183.49 1288.26 1154.77C1293.68 1160.47 1297.89 1160.35 1302.54 1166.93C1308.96 1175.98 1315.49 1191.99 1320.65 1201.5C1329.54 1217.92 1344.06 1207.79 1338.62 1225.66C1332.87 1244.57 1307.1 1288.47 1291.26 1300.31C1269.09 1316.88 1246.57 1341.08 1221.45 1352.71C1207.9 1358.99 1163.97 1360.02 1163.97 1360.02C1163.97 1360.02 1158.93 1348.62 1151.15 1335.83C1147.94 1330.55 1140.9 1324.81 1138.87 1319.9C1135.81 1312.46 1129.64 1296.02 1130.58 1288.02C1131.41 1280.93 1141.19 1259.07 1141.19 1259.07C1141.19 1259.07 1144.29 1287.38 1163.57 1286.11L1163.58 1286.11Z" fill="white"/>
<path d="M1163.97 1370.01C1160.03 1370.01 1156.44 1367.69 1154.83 1364.06C1154.79 1363.96 1149.93 1353.06 1142.61 1341.02C1141.67 1339.47 1139.77 1337.36 1137.94 1335.31C1134.73 1331.73 1131.41 1328.02 1129.63 1323.7C1124.91 1312.22 1119.52 1296.52 1120.65 1286.86C1121.59 1278.87 1129.62 1260.45 1132.06 1254.99C1133.9 1250.87 1138.28 1248.5 1142.74 1249.2C1147.2 1249.9 1150.63 1253.5 1151.13 1257.98C1151.14 1258.14 1153.71 1276.71 1162.92 1276.13C1187.74 1274.49 1223.76 1250.37 1242.9 1228.97C1261.5 1208.18 1275.08 1179.26 1278.35 1153.52C1278.83 1149.69 1281.48 1146.48 1285.14 1145.28C1288.81 1144.08 1292.84 1145.09 1295.5 1147.88C1297.06 1149.52 1298.4 1150.38 1300.25 1151.57C1303.25 1153.49 1306.97 1155.88 1310.7 1161.15C1315.36 1167.73 1319.85 1177.11 1323.81 1185.38C1325.84 1189.62 1327.75 1193.63 1329.44 1196.74C1331.68 1200.88 1333.94 1201.8 1337.35 1203.19C1345.52 1206.51 1353.2 1212.12 1348.19 1228.57C1342.01 1248.86 1315.04 1295.01 1297.25 1308.31C1290.17 1313.6 1283.06 1319.69 1275.54 1326.14C1259.89 1339.55 1243.71 1353.42 1225.65 1361.78C1210.96 1368.59 1171.89 1369.83 1164.21 1370.01C1164.13 1370.01 1164.05 1370.01 1163.97 1370.01L1163.97 1370.01ZM1141.37 1285.79C1140.9 1287.29 1140.59 1288.47 1140.51 1289.19C1140.13 1292.44 1142.62 1302.73 1148.12 1316.1C1148.61 1317.26 1151.25 1320.21 1152.83 1321.98C1155.27 1324.7 1157.79 1327.51 1159.69 1330.64C1164.23 1338.1 1167.86 1345.08 1170.2 1349.81C1186.69 1349.11 1209.8 1347.09 1217.25 1343.65C1232.79 1336.45 1247.91 1323.49 1262.53 1310.97C1269.97 1304.59 1277.67 1298 1285.28 1292.31C1298.56 1282.38 1323.46 1241.15 1329.06 1222.75C1329.2 1222.29 1329.31 1221.89 1329.41 1221.53C1324.77 1219.64 1317.35 1216.39 1311.86 1206.26C1309.93 1202.71 1307.91 1198.48 1305.77 1194.01C1302.3 1186.74 1298.38 1178.55 1294.82 1173.32C1288.4 1198 1275.19 1222.85 1257.8 1242.3C1235.88 1266.82 1195.63 1294 1164.24 1296.08C1153.96 1296.76 1146.55 1292.2 1141.37 1285.79Z" fill="black"/>
<path d="M1206.34 1322.74C1208.3 1314.88 1202.92 1306.76 1194.31 1304.61C1185.71 1302.46 1177.14 1307.09 1175.17 1314.95C1173.21 1322.82 1178.59 1330.93 1187.2 1333.08C1195.81 1335.23 1204.37 1330.6 1206.34 1322.74Z" fill="black"/>
<path d="M1189.6 1169.84C1197.18 1168.03 1203.79 1163.32 1209.38 1157.89C1225.23 1142.49 1234.06 1120.89 1237.05 1098.99C1240.05 1077.1 1232.32 1019.27 1228.16 997.572C1225.38 983.076 1160.61 980.075 1150.99 983.074C1144.6 985.068 1074.06 1037.73 1077.39 1046.97C1082.48 1061.09 1124.03 1171.82 1128.31 1172.43" fill="white"/>
<path d="M1128.32 1182.43C1127.85 1182.43 1127.38 1182.4 1126.9 1182.33C1120.46 1181.41 1118.13 1177.29 1110.08 1158.49C1105.92 1148.78 1100.46 1135.29 1093.85 1118.41C1082.29 1088.88 1070.51 1057.36 1067.99 1050.36C1066.76 1046.97 1067.11 1043.29 1069.02 1039.44C1072.85 1031.75 1086.22 1018.79 1108.76 1000.93C1109.07 1000.68 1140.38 975.912 1148.01 973.533C1158.85 970.154 1209.52 972.019 1228.29 983.252C1233.76 986.528 1237.02 990.714 1237.97 995.69C1241.97 1016.56 1250.24 1076.31 1246.96 1100.35C1243.41 1126.34 1232.54 1149.32 1216.35 1165.05C1208.39 1172.79 1200.4 1177.53 1191.92 1179.56C1186.55 1180.84 1181.16 1177.53 1179.87 1172.16C1178.59 1166.79 1181.9 1161.4 1187.27 1160.12C1192.08 1158.97 1197.18 1155.81 1202.41 1150.72C1215.41 1138.08 1224.2 1119.23 1227.15 1097.64C1229.8 1078.26 1223 1024.44 1218.58 1000.74C1216.24 999.07 1207.61 995.431 1187.45 993.285C1171.34 991.569 1157.8 991.885 1154.27 992.555C1150.82 994.435 1136.47 1004.37 1119.42 1017.99C1099.79 1033.67 1090.89 1042.85 1087.95 1046.76C1097.36 1072.44 1128.5 1154.01 1135.18 1165.17C1137.45 1167.33 1138.68 1170.51 1138.21 1173.85C1137.49 1178.83 1133.22 1182.43 1128.32 1182.43L1128.32 1182.43Z" fill="black"/>
<path d="M1139.56 1096.88C1132.89 1078.43 1122.07 1062.44 1106.17 1051.77C1096.62 1045.35 1086.62 1049.05 1077.72 1041.57C1058.29 1025.21 1049.19 997.575 1031.04 979.498C1025.74 974.215 1019.57 969.747 1012.62 967.916C997.745 963.992 986.1 965.748 982.972 981.51C980.027 996.35 988.724 1013.74 995.943 1025.55C1003.77 1038.34 1013.37 1049.72 1021.04 1062.63C1030.03 1077.77 1037.79 1093.97 1044.75 1110.19C1068.2 1164.8 1110.32 1178.35 1110.32 1178.35C1110.32 1178.35 1119.72 1182.73 1136.67 1179.7" fill="white"/>
<path d="M1125.15 1190.76C1115.22 1190.76 1108.86 1188.56 1106.76 1187.7C1101.43 1185.84 1059.41 1169.68 1035.57 1114.14C1027.78 1096 1020.22 1080.83 1012.44 1067.74C1008.67 1061.38 1004.4 1055.43 999.885 1049.12C995.692 1043.26 991.355 1037.2 987.414 1030.76C975.014 1010.49 970.352 993.739 973.166 979.564C974.934 970.661 979.039 964.141 985.372 960.185C992.79 955.552 1002.54 954.92 1015.17 958.252C1023.03 960.325 1030.74 965.091 1038.1 972.417C1047.34 981.62 1054.22 992.719 1060.87 1003.46C1068.11 1015.14 1074.95 1026.17 1084.16 1033.92C1086.65 1036.01 1089.29 1036.53 1094.14 1037.34C1099.17 1038.19 1105.44 1039.23 1111.75 1043.47C1128.51 1054.73 1141.03 1071.56 1148.96 1093.48C1150.84 1098.67 1148.15 1104.4 1142.96 1106.28C1137.77 1108.15 1132.04 1105.47 1130.16 1100.28C1123.71 1082.43 1113.76 1068.9 1100.6 1060.06C1097.88 1058.23 1094.77 1057.71 1090.84 1057.06C1085.15 1056.1 1078.07 1054.92 1071.29 1049.21C1059.64 1039.41 1051.63 1026.49 1043.88 1013.99C1037.55 1003.78 1031.57 994.133 1023.99 986.577C1019.16 981.769 1014.48 978.742 1010.07 977.579C1001.01 975.187 997.345 976.275 995.967 977.136C994.5 978.053 993.427 980.179 992.777 983.454C991.563 989.569 992.607 1000.93 1004.47 1020.33C1008.03 1026.15 1011.97 1031.66 1016.14 1037.48C1020.71 1043.85 1025.42 1050.44 1029.63 1057.53C1037.86 1071.37 1045.81 1087.31 1053.94 1106.25C1075.13 1155.62 1111.87 1168.33 1113.43 1168.85C1113.92 1169.01 1114.04 1169.04 1114.46 1169.25C1115.4 1169.61 1122.44 1172.09 1134.9 1169.86C1140.34 1168.89 1145.53 1172.5 1146.51 1177.94C1147.48 1183.37 1143.86 1188.56 1138.43 1189.53C1133.48 1190.42 1129.04 1190.76 1125.15 1190.76L1125.15 1190.76Z" fill="black"/>
<path d="M1159.58 835.532C1159.58 820.175 1110.37 807.727 1049.66 807.727C988.951 807.727 939.736 820.175 939.736 835.532V840.007L956.05 1189.51H1143.27C1143.27 1189.51 1159.58 837.056 1159.58 835.53L1159.58 835.532Z" fill="white"/>
<path d="M1143.27 1199.51H956.049C950.709 1199.51 946.312 1195.31 946.063 1189.98L929.749 840.473C929.742 840.318 929.738 840.162 929.738 840.008V835.531C929.738 822.546 942.737 812.945 969.479 806.181C991.019 800.732 1019.49 797.732 1049.66 797.732C1079.82 797.732 1108.3 800.732 1129.84 806.181C1156.58 812.946 1169.58 822.546 1169.58 835.531C1169.58 837.058 1159.35 1058.26 1153.25 1189.97C1153.01 1195.31 1148.61 1199.51 1143.27 1199.51L1143.27 1199.51ZM965.589 1179.52H1133.72C1136.25 1124.91 1148.77 854.324 1149.55 836.156C1148 834.137 1140.49 828.954 1120.09 824.41C1100.72 820.097 1075.71 817.721 1049.66 817.721C1023.61 817.721 998.598 820.097 979.229 824.41C958.674 828.987 951.212 834.213 949.731 836.2V839.775L965.589 1179.52Z" fill="black"/>
<path d="M1049.66 1208.81C1100.75 1208.81 1142.17 1200.17 1142.17 1189.51C1142.17 1178.86 1100.75 1170.22 1049.66 1170.22C998.565 1170.22 957.146 1178.86 957.146 1189.51C957.146 1200.17 998.565 1208.81 1049.66 1208.81Z" fill="white"/>
<path d="M1049.66 1218.8C1024.28 1218.8 1000.33 1216.72 982.201 1212.94C967.154 1209.8 947.149 1203.96 947.149 1189.51C947.149 1175.07 967.154 1169.23 982.201 1166.09C1000.33 1162.31 1024.28 1160.23 1049.66 1160.23C1075.03 1160.23 1098.99 1162.31 1117.12 1166.09C1132.16 1169.23 1152.17 1175.07 1152.17 1189.51C1152.17 1203.96 1132.16 1209.8 1117.12 1212.94C1098.99 1216.72 1075.03 1218.8 1049.66 1218.8ZM972.153 1189.51C983.68 1193.73 1010.32 1198.81 1049.66 1198.81C1089 1198.81 1115.64 1193.73 1127.17 1189.51C1115.64 1185.3 1089 1180.22 1049.66 1180.22C1010.32 1180.22 983.68 1185.3 972.153 1189.51Z" fill="black"/>
<path d="M1217.81 920.053C1217.65 914.645 1217.3 903.39 1209.74 893.272C1202.07 883.023 1191.19 879.554 1185.97 877.888L1140.73 863.447C1126.64 858.953 1111.59 866.723 1107.09 880.805C1102.59 894.887 1110.36 909.947 1124.45 914.444L1164.46 927.215L1165.54 962.818C1165.98 977.316 1177.88 988.771 1192.29 988.77C1192.56 988.77 1192.84 988.766 1193.11 988.758C1207.89 988.309 1219.51 975.966 1219.06 961.191L1217.81 920.053Z" fill="white"/>
<path d="M1192.29 998.764C1172.3 998.764 1156.16 983.109 1155.55 963.122L1154.69 934.585L1121.41 923.963C1112.05 920.978 1104.42 914.528 1099.92 905.801C1095.41 897.075 1094.58 887.118 1097.57 877.764C1103.73 858.458 1124.46 847.763 1143.77 853.925L1189.01 868.365C1194.74 870.192 1208.15 874.47 1217.74 887.283C1227.2 899.931 1227.62 913.817 1227.8 919.746L1229.05 960.884C1229.67 981.144 1213.68 998.129 1193.42 998.744C1193.05 998.756 1192.67 998.762 1192.29 998.762L1192.29 998.764ZM1132.6 872.172C1125.5 872.172 1118.88 876.725 1116.61 883.843C1115.25 888.112 1115.63 892.653 1117.68 896.636C1119.74 900.617 1123.22 903.56 1127.49 904.922L1167.5 917.694C1171.54 918.982 1174.33 922.676 1174.45 926.912L1175.54 962.514C1175.82 971.803 1183.47 979.075 1192.8 978.769C1202.06 978.488 1209.35 970.738 1209.07 961.494L1207.82 920.357C1207.68 915.636 1207.41 906.85 1201.73 899.258C1195.98 891.572 1187.49 888.865 1182.93 887.41L1137.69 872.97C1136.01 872.431 1134.29 872.174 1132.61 872.174L1132.6 872.172Z" fill="black"/>
<path d="M1071.47 997.361C1063.42 996.286 1056.07 991.148 1052.24 982.922C1046.09 969.752 1051.3 953.658 1063.87 946.977C1086.77 934.797 1106.63 927.526 1124.57 924.748C1127.41 924.308 1130.22 923.832 1132.99 923.364C1155.47 919.561 1180.97 915.247 1208.24 931.691C1220.31 938.968 1224.36 955.284 1217.29 968.136C1210.22 980.987 1194.7 985.506 1182.63 978.231C1171.21 971.344 1160.25 972.788 1140.27 976.169C1137.28 976.675 1134.26 977.185 1131.19 977.66C1118.77 979.585 1104.02 985.149 1086.11 994.671C1081.39 997.18 1076.3 998.006 1071.47 997.361Z" fill="white"/>
<path d="M1074.65 1007.57C1073.15 1007.57 1071.65 1007.47 1070.15 1007.27C1058.4 1005.7 1048.32 998.178 1043.18 987.147C1034.83 969.257 1042.01 947.278 1059.17 938.153C1083.09 925.439 1103.98 917.824 1123.04 914.873C1125.76 914.452 1128.44 913.998 1131.08 913.55L1131.32 913.511C1154.33 909.618 1182.96 904.776 1213.4 923.134C1229.99 933.133 1235.66 955.482 1226.04 972.954C1221.2 981.752 1213.35 987.991 1203.93 990.523C1194.89 992.952 1185.49 991.628 1177.47 986.792C1169.41 981.931 1161.76 982.671 1141.94 986.024C1138.9 986.538 1135.83 987.056 1132.72 987.538C1121.42 989.288 1107.71 994.508 1090.8 1003.5C1085.74 1006.19 1080.23 1007.57 1074.65 1007.57L1074.65 1007.57ZM1164.85 929.848C1154.58 929.848 1144.55 931.545 1134.66 933.217L1134.42 933.258C1131.68 933.722 1128.91 934.19 1126.1 934.624C1109.29 937.228 1090.47 944.155 1068.56 955.8C1060.63 960.015 1057.37 970.288 1061.3 978.699C1063.54 983.52 1067.84 986.793 1072.79 987.454C1075.72 987.849 1078.7 987.291 1081.42 985.848C1100.33 975.791 1116.11 969.882 1129.66 967.785C1132.68 967.316 1135.66 966.813 1138.61 966.315C1157.64 963.095 1172.67 960.55 1187.79 969.674C1191.11 971.677 1195 972.224 1198.74 971.218C1202.86 970.112 1206.33 967.306 1208.53 963.318C1213.03 955.128 1210.59 944.779 1203.08 940.25C1189.91 932.311 1177.21 929.848 1164.85 929.848H1164.85Z" fill="black"/>
<path d="M1186.98 1019.4C1185.64 1018.84 1181.35 1018.72 1169.09 1021.62L1078.12 1043.15C1076.04 1043.64 1073.97 1043.87 1071.93 1043.87C1059.8 1043.87 1048.81 1035.58 1045.9 1023.27C1042.49 1008.88 1051.4 994.459 1065.78 991.054L1156.76 969.527C1169.91 966.415 1194.39 960.623 1215.79 974.282C1226.18 980.912 1230.36 991.992 1229.44 1004.74" fill="white"/>
<path d="M1071.93 1053.87C1054.82 1053.87 1040.11 1042.23 1036.17 1025.57C1033.91 1016.01 1035.5 1006.15 1040.66 997.793C1045.82 989.438 1053.93 983.59 1063.48 981.329L1154.45 959.801C1168.01 956.597 1196.2 949.926 1221.17 965.859C1234.18 974.164 1240.66 988.229 1239.41 1005.46C1239.01 1010.97 1234.22 1015.1 1228.72 1014.71C1223.21 1014.31 1219.07 1009.53 1219.47 1004.02C1220.18 994.17 1217.13 987 1210.41 982.707C1192.57 971.324 1171.59 976.289 1159.06 979.254L1068.09 1000.78C1063.73 1001.81 1060.03 1004.48 1057.68 1008.29C1055.32 1012.1 1054.6 1016.61 1055.63 1020.97C1057.43 1028.57 1064.13 1033.88 1071.93 1033.88C1073.23 1033.88 1074.53 1033.73 1075.82 1033.42L1166.79 1011.9C1181.75 1008.36 1187.08 1008.62 1190.83 1010.18C1195.93 1012.31 1198.33 1018.16 1196.2 1023.26C1194.26 1027.91 1189.21 1030.32 1184.47 1029.08C1183.49 1029.09 1180.03 1029.3 1171.39 1031.35L1080.42 1052.88C1077.63 1053.53 1074.77 1053.87 1071.93 1053.87L1071.93 1053.87ZM1183.12 1028.62C1183.12 1028.62 1183.13 1028.63 1183.13 1028.63C1183.13 1028.63 1183.13 1028.63 1183.12 1028.62Z" fill="black"/>
<path d="M1225.62 1026.98C1220.63 1020.53 1182.21 1008.14 1172.63 1008.27C1156.11 1008.49 1109.29 1017.49 1101.87 1018.1C1087.11 1019.3 1076.18 1032.24 1077.39 1046.97C1078.61 1061.7 1091.54 1072.66 1106.27 1071.45C1116.58 1070.6 1161.15 1062.03 1172.76 1061.8C1174.29 1062.1 1177.7 1063.3 1179.99 1064.1C1187.23 1066.65 1196.24 1069.82 1206.15 1069C1206.26 1068.99 1206.38 1068.98 1206.49 1068.97" fill="white"/>
<path d="M1104.01 1081.53C1095.32 1081.53 1087 1078.49 1080.3 1072.81C1072.8 1066.46 1068.24 1057.57 1067.43 1047.79C1066.62 1038 1069.67 1028.49 1076.01 1021C1082.36 1013.5 1091.26 1008.93 1101.06 1008.13C1103.11 1007.97 1110.41 1006.76 1118.14 1005.48C1136.11 1002.5 1160.71 998.43 1172.49 998.274H1172.67C1183.19 998.274 1225.39 1010.34 1233.53 1020.87C1236.9 1025.24 1236.1 1031.51 1231.73 1034.89C1227.48 1038.16 1221.44 1037.5 1218 1033.46C1212.28 1028.66 1180.07 1018.26 1172.86 1018.26C1172.82 1018.26 1172.79 1018.26 1172.76 1018.26C1162.49 1018.4 1137.77 1022.49 1121.41 1025.2C1111 1026.92 1105.43 1027.83 1102.68 1028.05C1098.21 1028.42 1094.16 1030.5 1091.27 1033.92C1088.37 1037.33 1086.98 1041.67 1087.35 1046.14C1087.72 1050.61 1089.81 1054.66 1093.22 1057.56C1096.64 1060.46 1100.98 1061.85 1105.45 1061.48C1109.33 1061.16 1120.06 1059.39 1130.44 1057.68C1150.71 1054.33 1165.6 1051.95 1172.56 1051.81C1173.27 1051.8 1173.97 1051.85 1174.66 1051.99C1176.74 1052.39 1179.68 1053.4 1183.31 1054.67C1189.98 1057.02 1197.54 1059.67 1205.32 1059.04L1205.56 1059.02C1211.06 1058.5 1215.93 1062.54 1216.44 1068.04C1216.95 1073.53 1212.92 1078.4 1207.42 1078.92L1206.98 1078.96C1194.94 1079.95 1184.38 1076.24 1176.68 1073.53C1175.62 1073.16 1173.16 1072.3 1171.7 1071.85C1164.64 1072.29 1147.57 1075.11 1133.69 1077.4C1121.94 1079.34 1111.78 1081.02 1107.09 1081.41C1106.06 1081.49 1105.03 1081.53 1104.01 1081.53L1104.01 1081.53ZM1217.71 1033.09C1217.71 1033.09 1217.71 1033.1 1217.71 1033.1C1217.71 1033.1 1217.71 1033.09 1217.71 1033.09Z" fill="black"/>
<path d="M479.723 1208.81C497.038 1200.25 515.4 1196.77 533.387 1203.02C550.049 1208.81 548.74 1231.93 545.294 1237.63C539.836 1246.64 526.793 1248.38 517.08 1244.29C507.368 1240.2 474.941 1201 458.512 1189.51C427.529 1167.85 407.162 1169.02 386.737 1174.12C366.311 1179.22 350.409 1195.37 338.742 1212.89C327.077 1230.42 331.098 1253.6 318.722 1270.63C309.039 1283.95 292.82 1292.35 283.675 1306.04C267.937 1329.61 281.175 1350.17 274.709 1377.76C266.955 1410.84 290.728 1471.94 300.307 1504.55C311.918 1544.08 379.347 1574.57 450.071 1569.31C491.744 1566.22 533.599 1551.13 564.913 1523.46C595.577 1496.37 612.748 1454.7 610.068 1413.88C607.387 1373.05 628.134 1352.31 629.073 1312.95" fill="white"/>
<path d="M433.907 1579.91C365.307 1579.91 302.997 1549.18 290.714 1507.37C289.003 1501.54 286.771 1494.6 284.408 1487.26C273.265 1452.64 258.003 1405.23 264.976 1375.48C267.28 1365.64 266.712 1356.79 266.11 1347.41C265.159 1332.58 264.175 1317.25 275.36 1300.5C280.876 1292.23 288.176 1286 295.238 1279.97C301.118 1274.95 306.673 1270.2 310.635 1264.75C315.674 1257.82 317.45 1248.82 319.332 1239.3C321.442 1228.61 323.623 1217.56 330.421 1207.36C346.042 1183.89 364.175 1169.45 384.315 1164.42C408.977 1158.26 432.007 1158.78 464.242 1181.32C469.295 1184.86 475.404 1190.45 481.89 1196.84C501.224 1188.76 519.622 1187.66 536.668 1193.58C545.362 1196.6 551.709 1203.05 555.023 1212.24C559.072 1223.47 557.604 1236.6 553.846 1242.8C545.446 1256.67 526.585 1259.13 513.202 1253.5C506.682 1250.75 497.719 1241.69 482.438 1225.91C479.278 1222.65 475.991 1219.25 472.742 1215.96C472.655 1215.88 472.569 1215.79 472.484 1215.7C465.032 1208.16 457.8 1201.21 452.782 1197.7C423.809 1177.44 406.154 1179.57 389.159 1183.81C374.001 1187.6 359.839 1199.24 347.063 1218.43C342.468 1225.33 340.757 1234 338.945 1243.17C336.831 1253.87 334.435 1266.01 326.809 1276.5C321.457 1283.86 314.729 1289.61 308.224 1295.17C301.921 1300.55 295.967 1305.64 291.989 1311.59C284.561 1322.72 285.223 1333.05 286.063 1346.13C286.7 1356.07 287.422 1367.32 284.442 1380.04C278.735 1404.39 293.602 1450.58 303.44 1481.14C305.843 1488.61 308.114 1495.66 309.897 1501.73C319.14 1533.19 378.675 1564.59 449.33 1559.35C491.477 1556.22 530.175 1540.82 558.293 1515.97C586.546 1491.01 602.562 1452.15 600.092 1414.53C598.526 1390.69 604.265 1373.25 609.815 1356.39C614.373 1342.55 618.679 1329.47 619.079 1312.71C619.211 1307.19 623.814 1302.83 629.31 1302.96C634.829 1303.09 639.197 1307.67 639.065 1313.19C638.594 1332.9 633.618 1348.02 628.805 1362.64C623.624 1378.38 618.73 1393.25 620.041 1413.22C622.907 1456.87 604.319 1501.98 571.531 1530.95C540.16 1558.67 497.287 1575.83 450.81 1579.28C445.152 1579.7 439.504 1579.91 433.907 1579.91ZM521.023 1235.1C526.313 1237.3 533.955 1236.8 536.659 1232.58C537.487 1230.61 538.191 1223.56 535.869 1218.15C534.206 1214.27 531.784 1213.04 530.107 1212.46C520.047 1208.97 509.053 1208.99 497.297 1212.52C505.919 1221.42 517.41 1233.26 521.022 1235.1L521.023 1235.1Z" fill="black"/>
<path d="M378.496 1486.73C450.415 1479.46 505.371 1440.51 501.245 1399.74C497.118 1358.97 435.47 1331.82 363.551 1339.1C291.632 1346.38 236.675 1385.32 240.802 1426.09C244.929 1466.86 306.576 1494.01 378.496 1486.73Z" fill="black"/>
<path d="M355.28 1497.91C327.638 1497.91 301.602 1493 280.206 1483.57C250.762 1470.61 233.239 1450.55 230.865 1427.1C228.491 1403.64 241.638 1380.48 267.887 1361.88C292.458 1344.46 326.078 1332.84 362.552 1329.15C399.027 1325.46 434.295 1330.11 461.858 1342.25C491.3 1355.22 508.822 1375.28 511.198 1398.73C513.572 1422.18 500.425 1445.34 474.177 1463.94C449.605 1481.36 415.987 1492.98 379.511 1496.67C371.35 1497.5 363.247 1497.91 355.279 1497.91L355.28 1497.91ZM386.897 1347.9C379.572 1347.9 372.106 1348.28 364.566 1349.04C331.474 1352.39 301.246 1362.74 279.449 1378.19C259.329 1392.45 249.139 1409.1 250.757 1425.08C252.374 1441.07 265.695 1455.34 288.266 1465.28C312.717 1476.05 344.405 1480.14 377.499 1476.79C410.591 1473.44 440.818 1463.09 462.615 1447.64C482.736 1433.38 492.925 1416.72 491.308 1400.74C489.69 1384.76 476.369 1370.48 453.799 1360.54C434.919 1352.23 411.722 1347.9 386.897 1347.9V1347.9Z" fill="black"/>
<path d="M275.584 1472.62L411.886 1478.92C425.121 1479.54 436.348 1469.31 436.96 1456.07L438.989 1412.26C439.601 1399.02 429.368 1387.8 416.132 1387.19L279.831 1380.88C266.595 1380.27 255.369 1390.5 254.756 1403.73L252.728 1447.55C252.115 1460.78 262.348 1472 275.584 1472.62Z" fill="white"/>
<path d="M413.01 1488.94C412.481 1488.94 411.953 1488.93 411.419 1488.91L275.118 1482.6C256.397 1481.73 241.872 1465.8 242.738 1447.09L244.766 1403.27C245.184 1394.23 249.118 1385.88 255.841 1379.75C262.565 1373.62 271.253 1370.48 280.289 1370.9L416.591 1377.2C435.312 1378.07 449.836 1394 448.971 1412.72L446.942 1456.53C446.101 1474.72 431.033 1488.94 413.01 1488.94ZM276.043 1462.63L412.344 1468.94C420.033 1469.27 426.614 1463.32 426.971 1455.61L428.999 1411.8C429.356 1404.09 423.375 1397.53 415.666 1397.17L279.364 1390.86C275.66 1390.7 272.086 1391.99 269.309 1394.52C266.533 1397.05 264.909 1400.49 264.738 1404.19L262.71 1448.01C262.353 1455.72 268.333 1462.28 276.043 1462.63Z" fill="black"/>
<path d="M502.059 1423.32C512.087 1423.37 522.31 1425.31 530.919 1430.45C539.528 1435.59 546.343 1444.24 547.777 1454.17C549.21 1464.09 544.505 1475.02 535.564 1479.56C529.823 1482.48 523.113 1482.63 516.673 1482.54C492.777 1482.22 428.464 1480.02 421.022 1476.09C406.279 1468.3 413.651 1451.74 414.076 1444.03C414.499 1436.33 418.528 1428.9 424.738 1424.32C432.011 1418.95 441.658 1417.65 450.619 1418.85C458.945 1419.97 493.063 1423.27 502.059 1423.32Z" fill="white"/>
<path d="M518.777 1492.55C518.02 1492.55 517.274 1492.54 516.538 1492.53C504.021 1492.37 481.658 1491.7 462.138 1490.65C423.199 1488.54 418.913 1486.28 416.352 1484.92C398.066 1475.26 401.655 1456.72 403.382 1447.8C403.709 1446.12 404.045 1444.37 404.094 1443.48C404.682 1432.81 410.18 1422.64 418.801 1416.28C427.507 1409.85 439.276 1407.25 451.946 1408.95C460.731 1410.12 494.018 1413.28 502.113 1413.32C515.258 1413.39 526.675 1416.27 536.047 1421.87C547.81 1428.9 555.893 1440.44 557.671 1452.74C559.795 1467.44 552.565 1482.14 540.092 1488.47C533.121 1492.01 525.562 1492.55 518.777 1492.55ZM425.394 1467.09C433.645 1469.74 485.611 1472.13 516.807 1472.55C522.199 1472.63 527.34 1472.53 531.036 1470.65C535.75 1468.26 538.758 1461.64 537.884 1455.6C536.973 1449.29 532.339 1442.94 525.791 1439.03C519.53 1435.29 511.527 1433.36 502.005 1433.31C492.423 1433.26 457.844 1429.9 449.294 1428.76C441.906 1427.77 435.119 1429.08 430.675 1432.36C426.853 1435.18 424.318 1439.86 424.058 1444.58C423.934 1446.83 423.485 1449.15 423.01 1451.6C421.051 1461.72 421.504 1464.9 425.395 1467.09L425.394 1467.09Z" fill="black"/>
<path d="M403.444 1435.93C403.389 1445.96 398.462 1483.12 369.47 1479.2C344.197 1475.79 341.007 1454.54 341.093 1448.1C341.415 1424.21 343.205 1371.35 345.369 1363.22C350.018 1345.75 362.614 1339.95 373.598 1339.79C387.246 1339.59 401.5 1346.24 404.791 1359.04C407.041 1367.79 403.494 1426.94 403.444 1435.93Z" fill="white"/>
<path d="M373.564 1489.48C371.787 1489.48 369.977 1489.36 368.134 1489.11C338.455 1485.1 330.931 1460.45 331.099 1447.97C331.253 1436.51 332.76 1371.74 335.711 1360.65C340.78 1341.6 354.89 1330.07 373.454 1329.8C393.492 1329.51 410.348 1340.5 414.474 1356.55C416.183 1363.2 415.669 1383.29 414.039 1420.45C413.725 1427.61 413.454 1433.79 413.442 1435.99C413.435 1437.22 413.078 1466.31 395.847 1481.28C389.622 1486.69 381.999 1489.48 373.564 1489.48ZM374.189 1349.78C374.042 1349.78 373.895 1349.78 373.747 1349.78C367.125 1349.88 358.504 1352.73 355.03 1365.79C353.491 1371.79 351.506 1417.33 351.089 1448.24C351.064 1450.12 351.402 1466.68 370.808 1469.3C375.739 1469.96 379.528 1468.98 382.731 1466.2C390.741 1459.23 393.411 1442.77 393.448 1435.88C393.462 1433.3 393.715 1427.54 394.064 1419.58C394.748 1403.97 396.35 1367.43 395.09 1361.45C393.113 1353.77 383.157 1349.78 374.187 1349.78H374.189Z" fill="black"/>
<path d="M463.881 1442C463.856 1451.38 458.146 1481.21 432.483 1479.37C411.626 1477.87 404.631 1461.52 404.698 1455.5C404.949 1433.14 408.088 1382.18 408.968 1374.26C410.881 1357.03 424.232 1350.43 440.795 1352.38C451.629 1353.67 469.153 1361.28 466.21 1393.11C465.487 1400.93 463.903 1433.58 463.881 1442Z" fill="white"/>
<path d="M434.683 1489.44C433.721 1489.44 432.75 1489.41 431.768 1489.34C405.328 1487.44 394.581 1466.29 394.703 1455.38C394.956 1432.84 398.11 1381.46 399.033 1373.15C400.132 1363.26 404.355 1355.14 411.247 1349.66C419.016 1343.49 429.638 1341 441.968 1342.46C460.601 1344.66 479.369 1359.37 476.163 1394.03C475.436 1401.89 473.897 1434.19 473.876 1442.03C473.854 1450.32 470.598 1468.99 458.428 1480.28C451.938 1486.3 443.777 1489.44 434.681 1489.44H434.683ZM435.341 1362.05C430.437 1362.05 426.385 1363.17 423.681 1365.31C420.978 1367.46 419.415 1370.75 418.903 1375.36C418.03 1383.21 414.935 1434.09 414.693 1455.61C414.699 1455.65 417.049 1468.24 433.197 1469.4C437.99 1469.75 441.687 1468.55 444.826 1465.63C451.573 1459.37 453.871 1446.76 453.884 1441.97C453.906 1433.61 455.48 1400.58 456.256 1392.19C457.95 1373.87 452.352 1363.81 439.619 1362.31C438.135 1362.13 436.703 1362.05 435.34 1362.05H435.341Z" fill="black"/>
<path d="M281.9 1433.27C281.059 1442.62 282.198 1460.58 286.552 1469.06C290.906 1477.53 297.777 1482.94 309.026 1482.3C319.018 1481.74 329.604 1477.42 334.927 1469.5C338.346 1464.41 339.093 1458.18 339.582 1452.17C341.397 1429.89 344.818 1372.95 342.375 1365.36C337.181 1349.23 321.696 1345.11 310.419 1346.03C291.599 1347.57 284.412 1366.17 282.795 1378.87C281.802 1386.67 282.655 1424.89 281.9 1433.27Z" fill="white"/>
<path d="M307.267 1492.35C294.176 1492.35 283.972 1485.91 277.659 1473.62C271.598 1461.82 271.192 1440.74 271.944 1432.37C272.256 1428.92 272.258 1417.92 272.261 1408.23C272.265 1392.16 272.309 1382.08 272.879 1377.61C275.275 1358.78 286.181 1337.99 309.605 1336.07C324.818 1334.83 345.019 1340.95 351.892 1362.3C355.808 1374.46 349.611 1452.2 349.547 1452.98C348.978 1459.97 347.972 1468.01 343.225 1475.07C336.625 1484.89 323.736 1491.49 309.589 1492.28C308.806 1492.33 308.031 1492.35 307.267 1492.35ZM313.48 1355.91C312.575 1355.91 311.81 1355.95 311.235 1356C296.374 1357.21 293.199 1376.31 292.712 1380.13C292.261 1383.67 292.257 1397.29 292.254 1408.23C292.251 1419.81 292.248 1429.82 291.856 1434.17C291.045 1443.16 292.466 1458.69 295.444 1464.49C298.523 1470.48 302.183 1472.68 308.466 1472.33C316.248 1471.89 323.547 1468.51 326.629 1463.93C328.694 1460.85 329.222 1456.23 329.619 1451.36C331.94 1422.88 334.281 1375.65 332.798 1368.24C329.198 1357.4 318.883 1355.91 313.479 1355.91H313.48ZM332.856 1368.41C332.856 1368.41 332.859 1368.42 332.86 1368.42C332.859 1368.42 332.857 1368.41 332.856 1368.41Z" fill="black"/>
<path d="M228.876 1437.32C229.667 1445.29 229.021 1453.57 232.74 1460.81C236.458 1468.05 243.177 1474.78 251.631 1476.03C276.409 1479.72 280.644 1457.36 281.062 1452.23C282.612 1433.2 282.729 1383.11 279.952 1376.89C274.452 1364.57 262.699 1361.66 253.591 1361.93C247.003 1362.13 230.124 1373.69 229.006 1396.06C228.671 1402.77 228.066 1429.14 228.876 1437.32Z" fill="white"/>
<path d="M256.83 1486.43C254.746 1486.43 252.525 1486.27 250.159 1485.92C239.473 1484.33 229.637 1476.65 223.847 1465.38C220.074 1458.04 219.665 1450.48 219.306 1443.81C219.202 1441.88 219.102 1440.05 218.929 1438.3C218.007 1429.01 218.735 1401.31 219.023 1395.56C220.324 1369.52 240.19 1352.33 253.294 1351.94C269.893 1351.42 282.937 1359.05 289.081 1372.82C289.99 1374.86 291.884 1379.1 292.126 1409.68C292.254 1425.95 291.813 1443.38 291.025 1453.04C290.794 1455.88 289.058 1470.48 277.553 1479.61C273.405 1482.9 266.665 1486.43 256.831 1486.43H256.83ZM238.823 1436.33C239.041 1438.53 239.156 1440.66 239.268 1442.73C239.557 1448.08 239.807 1452.7 241.631 1456.25C243.834 1460.54 248.004 1465.39 253.1 1466.15C258.348 1466.93 262.281 1466.21 265.123 1463.96C269.466 1460.51 270.908 1453.73 271.097 1451.42C272.712 1431.6 272.429 1387.86 270.663 1380.62C267.171 1373.24 259.828 1371.77 254.151 1371.91C250.966 1372.7 239.794 1380.44 238.988 1396.56C238.645 1403.43 238.1 1429.05 238.822 1436.33L238.823 1436.33Z" fill="black"/>
<path d="M1165.73 1549.81L301.577 1491.62C297.462 1491.36 293.337 1491.81 289.378 1492.95L35.9328 1565.98C18.5443 1570.99 7.61231 1588.16 10.4403 1606.04C13.2692 1623.91 23.4115 1625.73 41.4838 1625.13C58.6634 1624.56 81.315 1634.62 97.8299 1633.58C119.89 1632.19 140.725 1630.88 161.625 1630.68C179.583 1630.51 195.412 1632.45 212.175 1634.51C232.254 1636.97 251.513 1634.06 276.839 1633.22C288.432 1632.83 305.158 1635.94 322.776 1633.21C337.837 1630.88 354.907 1628.24 369.472 1626.99C394.519 1624.84 416.853 1624.66 429.766 1624.83C444.847 1635.83 472.477 1650.05 514.93 1650.49C557.418 1650.93 587.591 1637.58 603.996 1627.75C619.328 1629.16 647.567 1631.92 682.574 1636.02C695.101 1637.48 710 1637.99 725.774 1638.54C738.702 1638.98 752.07 1639.45 763.005 1640.46C797.668 1643.65 833.895 1648.59 865.856 1652.95C904.368 1658.2 941.939 1661.62 974.375 1661.96C996.414 1662.19 1002.26 1661.51 1005.91 1660.34C1027.53 1653.45 1090.56 1620.99 1102.84 1618.64C1118.07 1615.73 1201.38 1590.6 1199.86 1572.92C1198.34 1555.24 1183.45 1550.93 1165.73 1549.81H1165.73ZM302.759 1563.73L303.258 1563.59L303.573 1563.61C303.302 1563.65 303.03 1563.69 302.759 1563.73V1563.73Z" fill="#2563EB"/>
<path d="M982.28 1672C979.855 1672 977.195 1671.98 974.268 1671.95C943.343 1671.63 906.414 1668.57 864.503 1662.85C832.655 1658.51 796.557 1653.59 762.085 1650.41C751.427 1649.43 738.21 1648.97 725.428 1648.53C709.441 1647.98 694.344 1647.46 681.411 1645.94C648.368 1642.08 621.177 1639.4 606.266 1638C587.188 1648.88 556.535 1660.91 514.825 1660.49C472.515 1660.05 443.791 1646.69 426.536 1634.8C414.55 1634.7 393.617 1634.95 370.329 1636.95C356.093 1638.17 339.204 1640.78 324.304 1643.09C311.783 1645.03 299.758 1644.28 290.095 1643.67C285.29 1643.37 280.751 1643.09 277.171 1643.21C269.421 1643.46 262.26 1643.92 255.335 1644.36C239.432 1645.37 225.697 1646.24 210.957 1644.43C194.539 1642.41 179.023 1640.5 161.72 1640.68C141.087 1640.87 120.38 1642.18 98.4573 1643.56C88.5899 1644.17 77.684 1641.62 67.1359 1639.15C58.1902 1637.05 48.9456 1634.88 41.8153 1635.12C28.0914 1635.57 5.11587 1636.34 0.566554 1607.6C-3.04311 1584.79 10.9707 1562.77 33.1625 1556.37L286.609 1483.35C291.696 1481.89 296.948 1481.32 302.215 1481.65L1166.4 1539.84C1176.55 1540.48 1207.27 1542.46 1209.81 1572.06C1210.95 1585.28 1196.44 1596.81 1161.28 1610.62C1138.86 1619.43 1113.6 1626.76 1104.71 1628.46C1099.68 1629.42 1078.26 1639.35 1061.05 1647.33C1040.95 1656.65 1020.17 1666.29 1008.95 1669.87C1004.54 1671.27 999.04 1672 982.279 1672L982.28 1672ZM603.995 1617.75C604.302 1617.75 604.609 1617.77 604.915 1617.8C622.116 1619.39 649.754 1622.12 683.734 1626.09C695.853 1627.51 710.552 1628.02 726.114 1628.55C739.182 1629 752.692 1629.47 763.923 1630.5C798.828 1633.72 835.154 1638.68 867.205 1643.05C908.293 1648.65 944.385 1651.65 974.479 1651.97C991.31 1652.14 999.802 1651.8 1002.87 1650.82C1012.9 1647.62 1034.01 1637.83 1052.64 1629.2C1077.98 1617.45 1093.86 1610.18 1100.96 1608.83C1106.85 1607.7 1127.8 1601.94 1149.52 1593.73C1180.83 1581.9 1188.29 1574.48 1189.77 1572.61C1188.99 1566.49 1185.71 1561.09 1165.1 1559.78C1165.09 1559.78 1165.07 1559.78 1165.06 1559.78L300.906 1501.59C297.973 1501.41 295.015 1501.73 292.147 1502.56L38.7004 1575.58C26.1831 1579.19 18.278 1591.61 20.3132 1604.47C21.4948 1611.93 23.792 1613.1 24.7736 1613.6C28.1713 1615.33 34.9608 1615.35 41.1515 1615.14C50.9229 1614.81 61.486 1617.29 71.7002 1619.69C80.8358 1621.83 90.2803 1624.05 97.2018 1623.61C119.399 1622.21 140.363 1620.89 161.53 1620.69C180.153 1620.5 196.302 1622.49 213.393 1624.59C226.286 1626.17 239.162 1625.35 254.07 1624.41C261.143 1623.96 268.458 1623.49 276.508 1623.23C281.046 1623.08 286.046 1623.39 291.342 1623.72C300.493 1624.29 310.868 1624.94 321.248 1623.33C336.462 1620.98 353.707 1618.31 368.617 1617.03C394.92 1614.77 418.3 1614.68 429.896 1614.84C431.97 1614.87 433.983 1615.54 435.657 1616.76C450.192 1627.36 475.761 1640.09 515.034 1640.5C554.232 1640.91 582.258 1629.13 598.854 1619.17C600.412 1618.24 602.19 1617.75 603.996 1617.75L603.995 1617.75ZM302.749 1573.73C298.126 1573.73 294.014 1570.52 292.995 1565.87C291.867 1560.73 294.921 1555.6 299.979 1554.13L300.477 1553.99C301.59 1553.67 302.749 1553.53 303.907 1553.62L304.222 1553.64C309.317 1553.97 313.344 1558.08 313.561 1563.18C313.778 1568.28 310.116 1572.73 305.067 1573.49L304.253 1573.62C303.748 1573.69 303.245 1573.73 302.75 1573.73L302.749 1573.73Z" fill="black"/>
<path d="M1116.95 1564.83L961.051 1603.26L939.81 1507.55L1097.01 1479.65L1116.95 1564.83Z" fill="white"/>
<path d="M961.051 1613.25C959.204 1613.25 957.376 1612.74 955.78 1611.75C953.493 1610.33 951.875 1608.05 951.292 1605.42L930.051 1509.71C929.461 1507.05 929.982 1504.26 931.494 1502C933.007 1499.73 935.38 1498.18 938.063 1497.7L1095.26 1469.81C1100.49 1468.87 1105.53 1472.2 1106.74 1477.37L1126.68 1562.55C1127.93 1567.88 1124.66 1573.22 1119.34 1574.53L963.442 1612.96C962.653 1613.16 961.849 1613.25 961.049 1613.25L961.051 1613.25ZM951.829 1515.56L968.593 1591.11L1104.96 1557.49L1089.43 1491.14L951.828 1515.56H951.829Z" fill="black"/>
<path d="M577.707 1483.22C577.707 1483.22 725.728 1453.55 779.803 1452.66C900.417 1450.68 939.809 1507.55 939.809 1507.55C939.809 1507.55 679.517 1508.63 600.343 1545.36C572.531 1558.26 514.208 1574.45 514.208 1574.45C514.208 1574.45 468.259 1559.89 446.173 1549.76C385.318 1521.85 121.348 1488.85 121.348 1488.85C121.348 1488.85 300.922 1443.25 310.323 1441.72C377.82 1430.76 450.531 1453.69 469.738 1454.68C488.232 1455.63 577.705 1483.22 577.705 1483.22L577.707 1483.22Z" fill="white"/>
<path d="M514.209 1584.44C513.19 1584.44 512.171 1584.29 511.189 1583.97C509.289 1583.37 464.396 1569.11 442.008 1558.84C383.24 1531.89 122.734 1499.09 120.11 1498.77C115.341 1498.17 111.672 1494.27 111.374 1489.47C111.075 1484.68 114.231 1480.35 118.89 1479.16C137.314 1474.48 299.165 1433.41 308.723 1431.86C360.825 1423.39 415.146 1434.27 447.602 1440.78C457.526 1442.76 466.098 1444.48 470.257 1444.7C488.289 1445.63 561.779 1467.88 578.233 1472.92C598.548 1468.9 728.51 1443.51 779.641 1442.67C781.769 1442.64 783.881 1442.62 785.962 1442.62C905.601 1442.62 946.326 1499.4 948.03 1501.85C950.143 1504.9 950.392 1508.87 948.676 1512.16C946.962 1515.45 943.564 1517.52 939.854 1517.54C937.273 1517.55 680.847 1519.03 604.555 1554.42C576.323 1567.52 519.299 1583.41 516.885 1584.08C516.011 1584.32 515.111 1584.44 514.211 1584.44L514.209 1584.44ZM174.121 1485.79C254.612 1496.97 405.024 1519.89 450.342 1540.67C468.51 1549.01 504.117 1560.69 514.394 1564.01C526.364 1560.61 572.84 1547.1 596.137 1536.29C662.697 1505.41 847.938 1499.14 915.258 1497.87C910.814 1494.54 905.386 1490.94 898.877 1487.37C877.318 1475.56 839.178 1461.65 779.968 1462.66C727.419 1463.52 581.144 1492.72 579.672 1493.02C578.041 1493.35 576.353 1493.26 574.762 1492.77C539.273 1481.83 481.879 1465.31 469.225 1464.66C463.604 1464.37 455.244 1462.69 443.673 1460.38C412.548 1454.14 360.454 1443.71 311.928 1451.59C306.449 1452.51 238.023 1469.65 174.122 1485.79L174.121 1485.79Z" fill="black"/>
<path d="M271.608 1449.9C315.826 1452.07 364.512 1447.41 406.308 1462C448.103 1476.6 487.522 1531.51 511.707 1568.59C522.701 1555.68 622.285 1505.45 658.771 1492.44C647.868 1440.3 461.222 1406.38 389.16 1407.84C357.284 1408.49 153.78 1437.77 153.78 1437.77C153.78 1437.77 251.96 1448.94 271.609 1449.9H271.608Z" fill="white"/>
<path d="M511.707 1578.58C511.496 1578.58 511.283 1578.57 511.07 1578.56C507.924 1578.36 505.055 1576.69 503.334 1574.05C489.215 1552.4 446.25 1486.54 403.011 1471.44C373.73 1461.21 339.81 1460.93 307.007 1460.66C295.161 1460.56 282.911 1460.46 271.12 1459.88C251.377 1458.92 156.672 1448.15 152.65 1447.7C147.655 1447.13 143.861 1442.94 143.786 1437.92C143.712 1432.89 147.381 1428.59 152.358 1427.87C160.691 1426.68 356.838 1398.5 388.959 1397.85C429.242 1397.04 495.232 1406.29 549.416 1420.37C622.738 1439.41 662.823 1462.97 668.557 1490.39C669.579 1495.28 666.835 1500.17 662.131 1501.85C645.367 1507.83 612.461 1522.94 580.246 1539.44C537.327 1561.43 521.626 1572.36 519.32 1575.07C517.414 1577.3 514.627 1578.58 511.709 1578.58H511.707ZM272.096 1439.92C283.482 1440.48 294.99 1440.57 307.172 1440.67C341.6 1440.96 377.201 1441.25 409.603 1452.57C450.817 1466.96 488.028 1515.16 514.037 1553.98C541.37 1535.17 610.855 1500.99 645.378 1486.9C640.433 1480.07 630.901 1472.82 617.563 1465.89C599.583 1456.53 574.279 1447.48 544.386 1439.71C485.723 1424.47 421.98 1417.17 389.362 1417.83C371.323 1418.2 295.263 1428.2 234.652 1436.52C251.391 1438.24 265.876 1439.61 272.096 1439.92Z" fill="black"/>
<path d="M815.3 1447.23C886.68 1450.42 1097.01 1479.65 1097.01 1479.65L939.81 1507.55L515.817 1566.34C515.817 1566.34 512.429 1499.15 659.123 1458.55C694.964 1448.63 776.193 1445.48 815.3 1447.23Z" fill="white"/>
<path d="M515.817 1576.33C513.505 1576.33 511.248 1575.53 509.444 1574.04C507.285 1572.25 505.975 1569.64 505.834 1566.84C505.679 1563.77 503.797 1491.17 656.457 1448.92C695.377 1438.14 779.555 1435.63 815.747 1437.24C886.776 1440.42 1089.78 1468.55 1098.39 1469.75C1103.26 1470.43 1106.91 1474.55 1107.01 1479.46C1107.1 1484.38 1103.6 1488.63 1098.76 1489.49L941.558 1517.38C941.434 1517.41 941.309 1517.43 941.184 1517.44L517.191 1576.24C516.734 1576.3 516.274 1576.33 515.817 1576.33ZM791.533 1456.76C749.348 1456.76 689.861 1460.41 661.79 1468.18C590.27 1487.97 557.008 1513.9 541.698 1532.16C534.351 1540.93 530.398 1548.66 528.273 1554.52L938.249 1497.67L1032.07 1481.02C964.222 1472.14 860.358 1459.25 814.853 1457.21C808.087 1456.91 800.168 1456.76 791.533 1456.76Z" fill="black"/>
<path d="M453.926 1504.32C424.935 1493.88 393.716 1491.85 362.944 1490.24C281.634 1485.96 202.661 1493.12 121.35 1488.85C113.096 1524.19 94.25 1583.45 94.25 1583.45L449.85 1577.73C449.85 1577.73 492.777 1605.35 523.056 1605.4C541.283 1605.42 596.424 1583.26 596.424 1583.26C596.424 1583.26 864.919 1596.09 961.051 1603.26C953.97 1571.35 946.89 1539.45 939.811 1507.54C849.449 1493.17 757.659 1495.75 666.17 1497.05C551.691 1498.68 517.316 1560.68 517.316 1560.68C517.316 1560.68 504.804 1522.65 453.927 1504.32L453.926 1504.32Z" fill="white"/>
<path d="M523.08 1615.39H523.042C494.373 1615.35 457.253 1593.98 447.065 1587.77L94.4099 1593.44C91.1991 1593.51 88.1482 1592 86.2279 1589.41C84.3076 1586.83 83.7478 1583.49 84.7225 1580.42C84.9104 1579.83 103.545 1521.13 111.614 1486.58C112.714 1481.87 117.037 1478.62 121.873 1478.87C162.176 1480.99 202.739 1480.26 241.965 1479.55C281.539 1478.84 322.46 1478.1 363.467 1480.26C397.505 1482.05 428.06 1484.38 457.312 1494.92C491.488 1507.23 509.837 1527.86 518.952 1542.07C536.82 1522.31 579.99 1488.28 666.025 1487.06C672.455 1486.97 678.886 1486.87 685.319 1486.78C769.483 1485.5 856.513 1484.18 941.378 1497.68C945.431 1498.32 948.677 1501.38 949.566 1505.38L970.807 1601.1C971.492 1604.18 970.676 1607.41 968.606 1609.8C966.537 1612.19 963.451 1613.46 960.304 1613.23C869.957 1606.49 623.831 1594.59 598.107 1593.35C586.785 1597.83 541.241 1615.39 523.077 1615.39L523.08 1615.39ZM449.849 1567.74C451.766 1567.74 453.645 1568.29 455.259 1569.33C466.532 1576.57 500.697 1595.37 523.069 1595.4H523.09C534.976 1595.4 572.083 1582.27 592.694 1573.99C594.029 1573.45 595.466 1573.21 596.901 1573.28C599.47 1573.4 843.822 1585.1 948.385 1592.33L931.531 1516.38C850.46 1504.26 766.701 1505.53 685.624 1506.76C679.185 1506.86 672.748 1506.95 666.311 1507.05C610.434 1507.84 575.245 1523.76 555.564 1536.97C534.38 1551.2 526.11 1565.44 526.029 1565.58C524.103 1569.05 520.307 1571.04 516.361 1570.66C512.405 1570.29 509.06 1567.58 507.819 1563.81C507.367 1562.49 495.781 1530.03 450.536 1513.73C423.854 1504.11 394.843 1501.92 362.419 1500.22C322.115 1498.1 281.553 1498.83 242.326 1499.53C205.422 1500.2 167.342 1500.89 129.116 1499.23C122.917 1523.95 113.357 1555.62 107.916 1573.23L449.687 1567.74H449.849Z" fill="black"/>
<path d="M1038 1139.1H1011.82V1132.18H1016.44V1131.88C1014.9 1131.33 1013.69 1130.42 1012.81 1129.15C1011.92 1127.88 1011.48 1126.35 1011.48 1124.58C1011.48 1122.78 1011.93 1121.26 1012.82 1119.99C1013.71 1118.73 1014.91 1117.89 1016.44 1117.47V1117.2C1014.94 1116.66 1013.74 1115.7 1012.84 1114.3C1011.93 1112.89 1011.48 1111.23 1011.48 1109.31C1011.48 1106.86 1012.26 1104.88 1013.81 1103.36C1015.36 1101.82 1017.55 1101.06 1020.39 1101.06H1038V1108.3H1021.82C1020.37 1108.3 1019.28 1108.69 1018.55 1109.46C1017.82 1110.23 1017.46 1111.2 1017.46 1112.36C1017.46 1113.68 1017.88 1114.7 1018.72 1115.44C1019.55 1116.18 1020.65 1116.55 1022.01 1116.55H1038V1123.59H1021.67C1020.39 1123.59 1019.36 1123.96 1018.6 1124.7C1017.84 1125.43 1017.46 1126.39 1017.46 1127.58C1017.46 1128.39 1017.66 1129.11 1018.07 1129.76C1018.47 1130.4 1019.03 1130.9 1019.76 1131.28C1020.48 1131.65 1021.32 1131.84 1022.28 1131.84H1038V1139.1ZM1038.49 1087.86C1038.49 1089.53 1038.2 1091.01 1037.62 1092.32C1037.03 1093.63 1036.16 1094.66 1035.02 1095.42C1033.86 1096.17 1032.41 1096.55 1030.69 1096.55C1029.23 1096.55 1028.01 1096.28 1027.02 1095.75C1026.03 1095.21 1025.24 1094.49 1024.64 1093.57C1024.03 1092.64 1023.58 1091.6 1023.27 1090.43C1022.97 1089.25 1022.75 1088.01 1022.62 1086.71C1022.47 1085.19 1022.32 1083.96 1022.18 1083.03C1022.03 1082.1 1021.82 1081.42 1021.53 1081C1021.25 1080.58 1020.83 1080.37 1020.27 1080.37H1020.17C1019.09 1080.37 1018.26 1080.71 1017.66 1081.39C1017.07 1082.07 1016.78 1083.02 1016.78 1084.26C1016.78 1085.57 1017.07 1086.61 1017.65 1087.38C1018.22 1088.15 1018.93 1088.66 1019.8 1088.91L1019.25 1095.63C1017.66 1095.29 1016.28 1094.62 1015.12 1093.62C1013.95 1092.62 1013.06 1091.33 1012.43 1089.75C1011.8 1088.16 1011.48 1086.32 1011.48 1084.22C1011.48 1082.77 1011.65 1081.38 1011.99 1080.05C1012.33 1078.71 1012.86 1077.52 1013.57 1076.49C1014.29 1075.44 1015.21 1074.62 1016.34 1074.01C1017.45 1073.41 1018.78 1073.11 1020.34 1073.11H1038V1080H1034.37V1080.2C1035.19 1080.62 1035.91 1081.18 1036.53 1081.89C1037.15 1082.59 1037.63 1083.44 1037.98 1084.43C1038.32 1085.42 1038.49 1086.56 1038.49 1087.86ZM1033.48 1085.78C1033.48 1084.71 1033.27 1083.76 1032.85 1082.95C1032.42 1082.13 1031.84 1081.49 1031.11 1081.02C1030.39 1080.55 1029.56 1080.32 1028.64 1080.32H1025.86C1026.01 1080.55 1026.15 1080.86 1026.27 1081.26C1026.39 1081.64 1026.49 1082.08 1026.6 1082.57C1026.69 1083.06 1026.77 1083.55 1026.85 1084.04C1026.92 1084.53 1026.98 1084.97 1027.04 1085.37C1027.16 1086.22 1027.36 1086.96 1027.64 1087.6C1027.91 1088.24 1028.28 1088.73 1028.74 1089.08C1029.2 1089.43 1029.77 1089.61 1030.45 1089.61C1031.44 1089.61 1032.19 1089.25 1032.72 1088.54C1033.23 1087.81 1033.48 1086.89 1033.48 1085.78ZM1011.82 1053.55H1017.27V1069.32H1011.82V1053.55ZM1005.55 1065.74V1058.48H1029.95C1030.62 1058.48 1031.15 1058.37 1031.52 1058.17C1031.89 1057.97 1032.14 1057.68 1032.29 1057.32C1032.44 1056.94 1032.51 1056.51 1032.51 1056.02C1032.51 1055.68 1032.48 1055.34 1032.43 1055C1032.36 1054.66 1032.31 1054.4 1032.27 1054.22L1037.68 1053.07C1037.79 1053.44 1037.92 1053.95 1038.07 1054.61C1038.23 1055.27 1038.32 1056.07 1038.36 1057.01C1038.43 1058.76 1038.19 1060.3 1037.66 1061.61C1037.12 1062.92 1036.3 1063.94 1035.17 1064.66C1034.05 1065.39 1032.62 1065.75 1030.91 1065.74H1005.55ZM1022.86 1041H1038V1048.26H1003.09V1041.2H1016.44V1040.89C1014.89 1040.3 1013.68 1039.35 1012.81 1038.03C1011.92 1036.71 1011.48 1035.06 1011.48 1033.07C1011.48 1031.25 1011.88 1029.67 1012.67 1028.32C1013.45 1026.95 1014.59 1025.89 1016.06 1025.14C1017.53 1024.38 1019.28 1024.01 1021.33 1024.02H1038V1031.28H1022.62C1021.01 1031.27 1019.76 1031.68 1018.86 1032.51C1017.96 1033.33 1017.51 1034.47 1017.51 1035.95C1017.51 1036.94 1017.72 1037.82 1018.14 1038.58C1018.56 1039.33 1019.18 1039.92 1019.98 1040.35C1020.78 1040.77 1021.74 1040.99 1022.86 1041ZM1003.09 1005.11H1038V1012.49H1010.1V1012.69L1015.11 1020.69H1008.56L1003.09 1012.05V1005.11ZM1038 996.811H1032.68L1021.18 984.385C1020.15 983.328 1019.23 982.442 1018.41 981.726C1017.6 980.999 1016.8 980.447 1016.01 980.072C1015.22 979.697 1014.36 979.51 1013.44 979.51C1012.41 979.51 1011.53 979.743 1010.8 980.209C1010.05 980.675 1009.47 981.311 1009.07 982.118C1008.66 982.925 1008.46 983.839 1008.46 984.862C1008.46 985.93 1008.68 986.862 1009.11 987.658C1009.54 988.453 1010.16 989.067 1010.97 989.499C1011.77 989.93 1012.73 990.146 1013.85 990.146V997.152C1011.56 997.152 1009.58 996.635 1007.9 995.601C1006.22 994.567 1004.91 993.118 1003.99 991.254C1003.07 989.391 1002.61 987.243 1002.61 984.811C1002.61 982.311 1003.06 980.135 1003.94 978.283C1004.82 976.419 1006.03 974.97 1007.59 973.936C1009.15 972.902 1010.93 972.385 1012.94 972.385C1014.26 972.385 1015.56 972.646 1016.85 973.169C1018.13 973.68 1019.56 974.595 1021.12 975.913C1022.68 977.232 1024.55 979.089 1026.73 981.487L1031.73 986.584H1031.97V971.925H1038V996.811Z" fill="#2563EB"/>
<path d="M1038.96 834C1028.69 834 1021.46 841.606 1016.42 849.783C1012 856.96 1008.9 864.784 1006.49 872.864H991.438L988.834 878.045H1005.03C1003.71 883.135 1002.59 888.29 1001.6 893.434C999.725 903.072 998.14 912.776 995.802 922.319C994.182 928.931 992.086 942.632 984.073 944.944C979.623 946.229 976.724 943.77 977.786 941.912C979.5 940.912 980.698 939.17 980.945 937.115C981.028 936.817 981.076 936.543 981.021 936.341C981.021 932.763 978.107 929.864 974.511 929.864C970.917 929.864 968.001 932.763 968.001 936.341C968.001 936.341 967.714 948 980.37 948C997.386 948 1005.11 929.347 1009.16 915.644C1012.8 903.335 1014.68 890.597 1017.36 878.045H1033.1L1035.71 872.864H1018.52C1019.93 866.872 1021.6 860.932 1023.82 855.183C1025.8 850.027 1029.25 838.795 1035.27 837.056C1039.72 835.771 1042.62 838.232 1041.55 840.093C1039.83 841.098 1038.63 842.855 1038.39 844.925C1038.31 845.208 1038.26 845.47 1038.31 845.659C1038.31 849.237 1041.23 852.136 1044.82 852.136C1048.42 852.136 1051.33 849.237 1051.33 845.659C1051.33 845.659 1051.62 834 1038.96 834ZM1055.36 872.864C1047.77 872.864 1041.92 881.44 1038.31 889.679L1043.51 890.453C1045.3 885.634 1048.24 880.636 1052.03 880.636C1056.13 880.636 1057.48 884.292 1058.42 888.956L1060.4 898.773H1060.37C1060.45 899.11 1060.65 899.969 1060.74 900.352L1046.98 915.654C1046.06 914.833 1044.85 914.318 1043.52 914.318C1040.64 914.318 1038.31 916.637 1038.31 919.5C1038.31 922.363 1040.64 924.682 1043.52 924.682C1045.13 924.682 1046.55 923.944 1047.5 922.804L1047.52 922.82L1062.17 906.525C1062.51 907.973 1062.65 908.582 1063.08 910.407C1064.98 918.438 1067.69 924.682 1075.92 924.682C1083.52 924.682 1089.38 916.105 1093 907.866L1087.79 907.092C1085.99 911.911 1083.05 916.909 1079.25 916.909C1075.14 916.909 1073.78 913.253 1072.84 908.59L1070.86 898.773C1070.79 898.448 1070.6 897.621 1070.51 897.255L1084.33 881.891C1085.25 882.713 1086.46 883.227 1087.79 883.227C1090.67 883.227 1093 880.908 1093 878.045C1093 875.182 1090.67 872.864 1087.79 872.864C1086.23 872.864 1084.84 873.564 1083.89 874.65L1083.87 874.635L1069.08 891.081C1068.74 889.616 1068.6 888.991 1068.16 887.139C1066.27 879.107 1063.57 872.864 1055.36 872.864Z" fill="#2563EB"/>
</g>
<defs>
<clipPath id="clip0_54_52">
<rect width="1614" height="1672" fill="white"/>
</clipPath>
</defs>
</svg>
