<svg width="500" height="500" viewBox="0 0 500 500" fill="none" xmlns="http://www.w3.org/2000/svg">
<path opacity="0.35" d="M476.1 371.5C475.35 379.2 471.6 386.1 465.6 391.05C464.4 392 463.15 392.85 461.85 393.6C466.45 403.4 466.1 415.3 459.85 425.1C453.8 434.45 443.6 440 432.5 440C426.25 440 420.15 438.2 414.9 434.8L284.85 351.1C284.95 352 285 352.85 285 353.75C285 359.55 285 411.9 285 417.5C285 426.15 281.6 434.3 275.5 440.45C272.5 443.45 269 445.85 265.05 447.5L264.75 447.6L264.45 447.75C260.6 449.25 256.55 450 252.5 450C248.4 450 244.4 449.25 240.55 447.75L240 447.5L239.45 447.3C235.65 445.6 232.3 443.3 229.45 440.4L229.35 440.3L229.2 440.15C223.3 434 220 425.95 220 417.5C220 415.25 220 359.55 220 353.75C220 351.65 220.2 349.6 220.6 347.6L85.1498 434.8C79.8498 438.2 73.7998 440 67.4998 440C56.3998 440 46.1998 434.45 40.1498 425.1C34.6998 416.55 33.6998 406.45 36.5998 397.5C34.4998 396.15 32.4998 394.6 30.7998 392.75C25.0498 386.6 22.3498 378.45 23.0998 369.9C23.5998 364.15 25.6998 358.55 29.1498 353.65C25.1498 348.65 22.7998 342.2 22.7998 335C22.7998 318.35 35.4498 305.8 52.2498 305.8H78.6998C87.2998 305.8 79.3498 309.05 84.9998 315C90.9498 321.2 85.7998 336.35 84.9998 345C84.8498 346.65 108.25 341.3 107.9 342.85L189.1 290.55C187.05 289.8 185.05 288.95 183.15 287.8L190 285C190 285 127.95 247.95 125 245C118.9 238.85 115 236.2 115 227.5C115 225.25 115.25 223.05 115.7 220.9C116.1 218.95 116.6 217.4 116.85 216.65L117.25 215.55L117.7 214.45C118.4 213 119.15 211.5 120.1 210.05L120.65 209.15L121.25 208.3C121.8 207.6 122.9 206.1 124.35 204.7C130.35 198.6 138.8 195.1 147.5 195.1C156.2 195.1 184.1 209 190 215C191.55 216.55 217.15 232.35 217.15 232.35L217.25 232.45C218.2 233.05 219.15 233.7 220 234.35V57.5C220 39.6 234.6 25 252.5 25C256.6 25 260.55 25.8 264.2 27.2C267.55 25.95 271.2 25.2 275 25.2C280.25 25.2 285.3 26.55 289.75 29C294.25 26.5 299.3 25.2 304.6 25.2C312.35 25.2 319.6 28 325 33.1C330.35 38.2 333.6 45.05 334.05 52.5C334.45 59.2 332.55 65.8 328.5 71.65L319.7 84.2V92.4C319.7 109.7 306.8 122.75 289.65 122.75C288.05 122.75 286.5 122.6 285 122.35V234.4C285.95 233.65 286.95 232.95 287.95 232.3C292.55 229.5 337.8 201.55 339.6 200.4L339.85 200.2L340.15 200C341.6 199.15 343.05 198.35 344.45 197.7L345.8 197.15L347 196.75C347.8 196.5 349.2 196.05 351.05 195.65L351.55 195.55C353.5 195.2 355.45 195 357.45 195C366.2 195 374.7 198.55 380.55 204.6C382.1 206.15 383.2 207.6 383.75 208.35L384.4 209.2L385 210.15C386.1 211.9 386.95 213.65 387.65 215.45C388.35 217.2 388.9 219.05 389.3 220.9C389.75 223.05 390 225.25 390 227.5C390 236.15 386.6 244.3 380.5 250.5C374.8 256.15 315.9 290.75 312.45 291.55L390.05 341.5C387.8 336.6 386.9 331.25 387.5 325.95C388.4 318.75 391.9 312.2 397.4 307.45C402.75 302.8 409.7 300.2 417 300.2C422.1 300.2 427 301.5 431.45 303.9C435.9 301.5 440.9 300.2 446.05 300.2C453.15 300.2 459.7 302.55 465.1 306.95C470.95 311.75 474.65 318.5 475.55 325.95C476.45 333.4 474.35 340.95 469.55 347.45L468.6 348.7L470 350.55C474.65 356.7 476.85 364.1 476.1 371.5Z" fill="black"/>
<path d="M466.1 361.5C465.35 369.2 461.6 376.1 455.6 381.05C454.4 382 453.15 382.85 451.85 383.6C456.45 393.4 456.1 405.3 449.85 415.1C443.8 424.45 433.6 430 422.5 430C416.25 430 410.15 428.2 404.9 424.8L274.85 341.1C274.95 342 275 342.85 275 343.75C275 349.55 275 401.9 275 407.5C275 416.15 271.6 424.3 265.5 430.45C262.5 433.45 259 435.85 255.05 437.5L254.75 437.6L254.45 437.75C250.6 439.25 246.55 440 242.5 440C238.4 440 234.4 439.25 230.55 437.75L230 437.5L229.45 437.3C225.65 435.6 222.3 433.3 219.45 430.4L219.35 430.3L219.2 430.15C213.3 424 210 415.95 210 407.5C210 405.25 210 349.55 210 343.75C210 341.65 210.2 339.6 210.6 337.6L75.1498 424.8C69.8498 428.2 63.7998 430 57.4998 430C46.3998 430 36.1998 424.45 30.1498 415.1C24.6998 406.55 23.6998 396.45 26.5998 387.5C24.4998 386.15 22.4998 384.6 20.7998 382.75C15.0498 376.6 12.3498 368.45 13.0998 359.9C13.5998 354.15 15.6998 348.55 19.1498 343.65C15.1498 338.65 12.7998 332.2 12.7998 325C12.7998 308.35 25.4498 295.8 42.2498 295.8H68.6998C77.2998 295.8 85.0998 299.05 90.7498 305C96.6998 311.2 99.4998 319.4 98.6998 328.05C98.5498 329.7 98.2498 331.3 97.8998 332.85L179.1 280.55C177.05 279.8 175.05 278.95 173.15 277.8L172.95 277.7C172.95 277.7 117.45 243.45 114.5 240.5C108.4 234.35 105 226.2 105 217.5C105 215.25 105.25 213.05 105.7 210.9C106.1 208.95 106.6 207.4 106.85 206.65L107.25 205.55L107.7 204.45C108.4 203 109.15 201.5 110.1 200.05L110.65 199.15L111.25 198.3C111.8 197.6 112.9 196.1 114.35 194.7C120.35 188.6 128.8 185.1 137.5 185.1C146.2 185.1 174.1 199 180 205C181.55 206.55 207.15 222.35 207.15 222.35L207.25 222.45C208.2 223.05 209.15 223.7 210 224.35V47.5C210 29.6 224.6 15 242.5 15C246.6 15 250.55 15.8 254.2 17.2C257.55 15.95 261.2 15.2 265 15.2C270.25 15.2 275.3 16.55 279.75 19C284.25 16.5 289.3 15.2 294.6 15.2C302.35 15.2 309.6 18 315 23.1C320.35 28.2 323.6 35.05 324.05 42.5C324.45 49.2 322.55 55.8 318.5 61.65L309.7 74.2V82.4C309.7 99.7 296.8 112.75 279.65 112.75C278.05 112.75 276.5 112.6 275 112.35V224.4C275.95 223.65 276.95 222.95 277.95 222.3C282.55 219.5 327.8 191.55 329.6 190.4L329.85 190.2L330.15 190C331.6 189.15 333.05 188.35 334.45 187.7L335.8 187.15L337 186.75C337.8 186.5 339.2 186.05 341.05 185.65L341.55 185.55C343.5 185.2 345.45 185 347.45 185C356.2 185 364.7 188.55 370.55 194.6C372.1 196.15 373.2 197.6 373.75 198.35L374.4 199.2L375 200.15C376.1 201.9 376.95 203.65 377.65 205.45C378.35 207.2 378.9 209.05 379.3 210.9C379.75 213.05 380 215.25 380 217.5C380 226.15 376.6 234.3 370.5 240.5C364.8 246.15 305.9 280.75 302.45 281.55L380.05 331.5C377.8 326.6 376.9 321.25 377.5 315.95C378.4 308.75 381.9 302.2 387.4 297.45C392.75 292.8 399.7 290.2 407 290.2C412.1 290.2 417 291.5 421.45 293.9C425.9 291.5 430.9 290.2 436.05 290.2C443.15 290.2 449.7 292.55 455.1 296.95C460.95 301.75 464.65 308.5 465.55 315.95C466.45 323.4 464.35 330.95 459.55 337.45L458.6 338.7L460 340.55C464.65 346.7 466.85 354.1 466.1 361.5Z" fill="#F2F2F2"/>
<path d="M426.56 391.195L250 277.52C250 277.52 250 277.51 250 277.5V47.5C250 43.36 246.645 40 242.5 40C238.355 40 235 43.36 235 47.5V274.3L53.4397 391.195C49.9547 393.435 48.9547 398.075 51.1947 401.56C53.4397 405.04 58.0797 406.05 61.5597 403.8L239.4 289.3C240.07 289.605 240.785 289.8 241.525 289.895L418.44 403.795C419.695 404.615 421.105 405 422.495 405C424.96 405 427.375 403.79 428.81 401.56C431.045 398.075 430.045 393.44 426.56 391.195Z" fill="#40396E"/>
<path d="M344.65 224.45C345.55 224.8 346.5 225 347.5 225C349.5 225 351.4 224.2 352.8 222.8C354.2 221.4 355 219.5 355 217.5C355 216.995 354.95 216.5 354.85 216.05C354.75 215.545 354.6 215.1 354.4 214.65C354.25 214.2 354 213.75 353.75 213.35C353.45 212.95 353.15 212.55 352.8 212.2C351.1 210.45 348.5 209.7 346.05 210.15C345.55 210.255 345.1 210.405 344.65 210.55C344.2 210.75 343.75 211.005 343.35 211.255C342.9 211.555 342.55 211.855 342.2 212.2C341.85 212.55 341.55 212.95 341.25 213.35C341 213.75 340.75 214.2 340.55 214.65C340.4 215.1 340.25 215.55 340.15 216.05C340.05 216.5 340 216.995 340 217.5C340 219.495 340.8 221.395 342.2 222.8C342.9 223.5 343.75 224.05 344.65 224.45Z" fill="#40396E"/>
<path d="M264.8 259.85C261.3 262.05 260.2 266.65 262.4 270.2C263.8 272.5 266.25 273.75 268.75 273.75C270.1 273.75 271.45 273.4 272.7 272.6C276.2 270.45 277.3 265.805 275.15 262.3C272.95 258.8 268.3 257.7 264.8 259.85Z" fill="#40396E"/>
<path d="M321.25 241.25C322.6 241.25 323.95 240.9 325.2 240.1C328.7 237.95 329.8 233.305 327.65 229.8C325.45 226.3 320.8 225.2 317.3 227.35C313.8 229.55 312.7 234.2 314.85 237.7C316.3 240 318.75 241.25 321.25 241.25Z" fill="#40396E"/>
<path d="M291.05 243.6C287.5 245.8 286.45 250.4 288.65 253.95C290.05 256.25 292.5 257.5 295 257.5C296.35 257.5 297.7 257.15 298.95 256.35C302.45 254.2 303.55 249.555 301.4 246.05C299.2 242.5 294.55 241.45 291.05 243.6Z" fill="#40396E"/>
<path d="M159.8 240.1C161.05 240.9 162.4 241.25 163.75 241.25C166.25 241.25 168.7 240 170.15 237.7C172.3 234.2 171.2 229.55 167.7 227.35C164.2 225.2 159.55 226.3 157.35 229.8C155.2 233.3 156.3 237.95 159.8 240.1Z" fill="#40396E"/>
<path d="M212.3 272.6C213.55 273.4 214.9 273.75 216.25 273.75C218.75 273.75 221.2 272.5 222.6 270.2C224.8 266.65 223.75 262.05 220.2 259.85C216.7 257.7 212.05 258.8 209.85 262.3C207.7 265.8 208.8 270.45 212.3 272.6Z" fill="#40396E"/>
<path d="M186.05 256.395C187.3 257.15 188.65 257.5 190 257.5C192.5 257.5 194.95 256.25 196.4 253.95C198.55 250.4 197.45 245.8 193.95 243.6C190.45 241.45 185.8 242.55 183.6 246.05C181.45 249.55 182.55 254.2 186.05 256.395Z" fill="#40396E"/>
<path d="M134.65 224.45C135.55 224.8 136.5 225 137.5 225C139.5 225 141.4 224.2 142.8 222.8C144.2 221.4 145 219.5 145 217.5C145 216.995 144.95 216.5 144.85 216.05C144.75 215.545 144.6 215.1 144.45 214.65C144.25 214.2 144 213.75 143.75 213.35C143.45 212.95 143.15 212.55 142.8 212.2C140.05 209.4 134.95 209.4 132.2 212.2C131.85 212.55 131.55 212.95 131.25 213.35C131 213.75 130.75 214.2 130.55 214.65C130.4 215.1 130.25 215.55 130.15 216.05C130.05 216.5 130 216.995 130 217.5C130 219.495 130.8 221.395 132.2 222.8C132.9 223.5 133.7 224.05 134.65 224.45Z" fill="#40396E"/>
<path d="M237.2 402.195C236.85 402.545 236.55 402.945 236.25 403.345C236 403.745 235.75 404.195 235.55 404.645C235.4 405.095 235.25 405.545 235.15 406.045C235.05 406.5 235 406.995 235 407.5C235 409.495 235.8 411.35 237.2 412.8C237.9 413.505 238.75 414.05 239.65 414.45C240.55 414.8 241.5 415 242.5 415C243.5 415 244.45 414.8 245.35 414.45C246.3 414.05 247.1 413.505 247.8 412.8C249.2 411.4 250 409.5 250 407.5C250 405.545 249.2 403.6 247.8 402.195C245 399.4 240 399.4 237.2 402.195Z" fill="#40396E"/>
<path d="M242.5 351.25C246.642 351.25 250 347.892 250 343.75C250 339.608 246.642 336.25 242.5 336.25C238.358 336.25 235 339.608 235 343.75C235 347.892 238.358 351.25 242.5 351.25Z" fill="#40396E"/>
<path d="M242.5 319.35C246.642 319.35 250 315.992 250 311.85C250 307.708 246.642 304.35 242.5 304.35C238.358 304.35 235 307.708 235 311.85C235 315.992 238.358 319.35 242.5 319.35Z" fill="#40396E"/>
<path d="M242.5 368.15C238.35 368.15 235 371.5 235 375.6C235 379.75 238.35 383.15 242.5 383.15C246.65 383.15 250 379.75 250 375.6C250 371.5 246.65 368.15 242.5 368.15Z" fill="#40396E"/>
<path d="M440.07 355.64L427.32 338.68L439.61 322.38C440.485 321.195 440.86 320.06 440.725 318.965C440.595 317.87 440.1 316.97 439.245 316.27C438.39 315.57 437.33 315.22 436.055 315.22C434.96 315.22 433.995 315.485 433.165 316.01C432.33 316.535 431.5 317.37 430.67 318.51L421.53 331.265L412.33 318.5C410.75 316.31 408.98 315.21 407.005 315.21C405.69 315.21 404.615 315.575 403.785 316.295C402.95 317.02 402.47 317.915 402.34 318.99C402.21 320.065 402.58 321.19 403.455 322.375L415.68 338.675L402.86 355.635C402.025 356.775 401.675 357.895 401.81 358.99C401.94 360.085 402.435 360.985 403.29 361.685C404.145 362.385 405.23 362.735 406.545 362.735C407.595 362.735 408.535 362.47 409.37 361.945C410.2 361.42 411.035 360.565 411.87 359.38L421.465 346.165L431.125 359.38C432 360.565 432.845 361.415 433.655 361.945C434.465 362.47 435.395 362.735 436.45 362.735C437.81 362.735 438.915 362.38 439.77 361.685C440.625 360.985 441.105 360.085 441.215 358.99C441.33 357.9 440.95 356.78 440.07 355.64Z" fill="#40396E"/>
<path d="M274.53 66.245V82.415C274.53 84.125 274.965 85.44 275.845 86.36C276.72 87.28 277.99 87.74 279.655 87.74C283.03 87.74 284.715 85.965 284.715 82.415V66.31L297.995 47.315C298.785 46.175 299.145 45.07 299.08 43.995C299.015 42.925 298.595 42.025 297.83 41.3C297.065 40.575 295.98 40.215 294.575 40.215C293.48 40.215 292.525 40.47 291.715 40.975C290.905 41.48 290.08 42.32 289.25 43.505L279.785 57.175L270.32 43.5C268.83 41.305 267.055 40.21 265 40.21C263.555 40.21 262.435 40.605 261.645 41.395C260.855 42.18 260.42 43.115 260.33 44.19C260.24 45.265 260.505 46.26 261.12 47.18L274.53 66.245Z" fill="#40396E"/>
<path d="M74.9999 362.875C74.9999 360.07 73.5099 358.67 70.5299 358.67H50.2199L71.7799 330.4C73.0049 328.825 73.6849 327.3 73.8199 325.835C73.9499 324.365 73.5649 323.16 72.6699 322.22C71.7699 321.28 70.4449 320.81 68.6949 320.81H42.2649C39.2849 320.81 37.7949 322.215 37.7949 325.015C37.7949 327.865 39.2849 329.29 42.2649 329.29H61.5899L39.9649 357.55C38.7799 359.085 38.1249 360.595 37.9949 362.085C37.8649 363.575 38.2349 364.79 39.1099 365.735C39.9849 366.675 41.2999 367.145 43.0549 367.145H70.5299C73.5099 367.145 74.9999 365.725 74.9999 362.875Z" fill="#40396E"/>
</svg>
